<svg width="10" height="11" viewBox="0 0 10 11" fill="none" xmlns="http://www.w3.org/2000/svg">
<path d="M0 4.5C0 3.557 -2.98023e-08 3.086 0.293 2.793C0.586 2.5 1.057 2.5 2 2.5H8C8.943 2.5 9.414 2.5 9.707 2.793C10 3.086 10 3.557 10 4.5C10 4.7355 10 4.8535 9.927 4.927C9.8535 5 9.735 5 9.5 5H0.5C0.2645 5 0.1465 5 0.073 4.927C-4.47035e-08 4.8535 0 4.735 0 4.5ZM0 9C0 9.943 -2.98023e-08 10.414 0.293 10.707C0.586 11 1.057 11 2 11H8C8.943 11 9.414 11 9.707 10.707C10 10.414 10 9.943 10 9V6.5C10 6.2645 10 6.1465 9.927 6.073C9.8535 6 9.735 6 9.5 6H0.5C0.2645 6 0.1465 6 0.073 6.073C-4.47035e-08 6.1465 0 6.265 0 6.5V9Z" fill="white"/>
<path d="M2.5 1.5V3M7.5 1.5V3" stroke="white" stroke-width="2" stroke-linecap="round"/>
</svg>
