<svg width="30" height="23" viewBox="0 0 30 23" fill="none" xmlns="http://www.w3.org/2000/svg">
<path d="M5.66927 22.6667V20H7.8026L10.4359 11.2333C10.6137 10.6556 10.9417 10.1947 11.4199 9.85067C11.8982 9.50667 12.4257 9.33422 13.0026 9.33333H17.0026C17.5804 9.33333 18.1084 9.50578 18.5866 9.85067C19.0648 10.1956 19.3924 10.6564 19.5693 11.2333L22.2026 20H24.3359V22.6667H5.66927ZM13.6693 6.66667V0H16.3359V6.66667H13.6693ZM21.6026 9.96667L19.7026 8.06667L24.4359 3.36667L26.3026 5.23333L21.6026 9.96667ZM23.0026 16V13.3333H29.6693V16H23.0026ZM8.40261 9.96667L3.7026 5.23333L5.56927 3.36667L10.3026 8.06667L8.40261 9.96667ZM0.335938 16V13.3333H7.0026V16H0.335938Z" fill="white"/>
</svg>
