<svg width="178" height="121" viewBox="0 0 178 121" fill="none" xmlns="http://www.w3.org/2000/svg">
<path d="M124.418 10.998C131.883 7.26534 133.823 2.11072 133.861 0C136.616 7.37643 125.677 13.9604 119.863 16.3303C99.1671 25.3287 96.2378 34.9566 97.8671 39.5483C93.6901 29.8612 104.718 20.9962 110.754 17.7745C114.22 16.1748 121.307 12.5903 124.418 10.998Z" fill="#ED1B24"/>
<path d="M54.3868 10.998C46.9215 7.26534 44.9811 2.11072 44.9441 0C42.1891 7.37643 53.1278 13.9604 58.9415 16.3303C62.647 17.7745 70.1911 21.285 72.5018 23.7734C74.8347 25.4768 78.199 31.9687 84.4045 39.996L89.7208 46.547C91.7945 48.8799 95.4753 54.8788 93.609 60.2112C92.4981 62.6182 88.5293 66.4972 83.833 66.6545C81.0187 66.8396 75.2791 65.388 74.8347 58.1005C75.0198 56.1749 76.7677 52.2349 82.2778 51.8794C78.7229 51.3239 71.7908 52.2127 72.5018 60.2112C73.3535 63.8772 77.3453 70.787 86.4992 69.0985C90.4985 68.4319 98.1637 64.6326 96.8307 54.7677C96.4604 52.9903 95.1865 48.8577 93.0536 46.547L85.8327 38.2152C82.7221 34.4381 77.2786 24.7755 74.6124 22.3759L73.545 21.4534C72.8506 20.8532 72.1107 20.3077 71.332 19.8218L68.051 17.7745C64.585 16.1748 57.4974 12.5903 54.3868 10.998Z" fill="#ED1B24"/>
<path d="M117.272 21.6622C107.319 25.0394 103.053 30.9198 102.164 33.4379C104.297 28.5499 114.088 24.5136 118.717 23.1064C125.293 21.7703 130.418 19.0689 132.159 17.8852C138.202 12.9083 137.269 6.1836 136.047 3.44336C137.291 9.4867 133.158 14.2562 130.937 15.8855C128.804 17.4852 120.938 20.4032 117.272 21.6622Z" fill="#ED1B24"/>
<path d="M61.7354 21.5519C71.6891 24.9291 75.955 30.8095 76.8438 33.3275C74.7108 28.4395 64.92 24.4032 60.2912 22.9961C53.7147 21.66 48.5897 18.9585 46.8492 17.7748C40.8059 12.7979 41.7391 6.07325 42.9611 3.33301C41.7169 9.37635 45.8494 14.1458 48.0712 15.7752C50.2042 17.3749 58.0694 20.2929 61.7354 21.5519Z" fill="#ED1B24"/>
<path d="M89.2262 1.7419C89.2931 1.44598 89.7147 1.44599 89.7815 1.7419L90.6604 5.63284C90.6995 5.80592 90.8857 5.90143 91.0491 5.83223L93.1098 4.95938C93.3453 4.85961 93.5827 5.09698 93.4829 5.33251L92.6101 7.3932C92.5409 7.55659 92.6364 7.74278 92.8095 7.78188L96.7004 8.66078C96.9963 8.72762 96.9963 9.14926 96.7004 9.2161L92.8095 10.095C92.6364 10.1341 92.5409 10.3203 92.6101 10.4837L93.4829 12.5444C93.5827 12.7799 93.3453 13.0173 93.1098 12.9175L91.0491 12.0447C90.8857 11.9754 90.6995 12.071 90.6604 12.244L89.7815 16.135C89.7147 16.4309 89.2931 16.4309 89.2262 16.135L88.3473 12.244C88.3082 12.071 88.122 11.9754 87.9586 12.0447L85.8979 12.9175C85.6624 13.0173 85.425 12.7799 85.5248 12.5444L86.3977 10.4837C86.4669 10.3203 86.3713 10.1341 86.1983 10.095L82.3073 9.2161C82.0114 9.14926 82.0114 8.72762 82.3073 8.66078L86.1983 7.78188C86.3713 7.74278 86.4669 7.55659 86.3977 7.3932L85.5248 5.33251C85.425 5.09697 85.6624 4.85961 85.8979 4.95938L87.9586 5.83223C88.122 5.90143 88.3082 5.80592 88.3473 5.63284L89.2262 1.7419Z" fill="#0059A9"/>
<path d="M117.381 27.5504C108.938 28.6169 104.828 33.1049 103.828 35.2157C106.761 30.2388 114.086 29.0686 117.381 29.1057C119.692 29.1945 123.528 28.6243 125.158 28.328C133.867 26.7283 134.785 20.6257 134.156 17.7744C133.8 25.3286 122.825 27.4393 117.381 27.5504Z" fill="#ED1B24"/>
<path d="M61.6657 27.5504C70.1086 28.6169 74.2189 33.1049 75.2188 35.2157C72.286 30.2388 64.9614 29.0686 61.6657 29.1057C59.355 29.1945 55.5187 28.6243 53.8893 28.328C45.1798 26.7283 44.2615 20.6257 44.891 17.7744C45.2465 25.3286 56.2222 27.4393 61.6657 27.5504Z" fill="#ED1B24"/>
<path d="M113.164 33.438C106.943 33.5269 103.832 36.6597 103.055 38.2149C105.632 34.4823 110.868 34.3638 113.164 34.7711C116.452 35.3819 120.015 35.2478 121.385 35.1044C125.917 34.4823 127.791 30.5497 128.161 28.6611C127.701 29.8051 126.384 31.4754 125.495 32.1049C123.095 34.149 116.274 33.8454 113.164 33.438Z" fill="#ED1B24"/>
<path d="M65.8829 33.438C72.104 33.5269 75.2146 36.6597 75.9922 38.2149C73.4149 34.4823 68.1788 34.3638 65.8829 34.7711C62.5946 35.3819 59.0323 35.2478 57.6622 35.1044C53.1297 34.4823 51.256 30.5497 50.8857 28.6611C51.4697 29.862 52.6631 31.4754 53.5519 32.1049C55.9514 34.149 62.7724 33.8454 65.8829 33.438Z" fill="#ED1B24"/>
<path d="M110.711 38.5485C106.445 37.1265 103.527 39.141 102.602 40.326C105.357 38.193 108.934 38.9188 110.378 39.5483C111.978 40.3481 114.525 40.7703 115.599 40.8814C119.51 40.8814 121.154 37.6968 121.487 36.1045C121.22 36.9786 119.932 38.5485 119.376 38.8818C117.332 40.4815 112.748 39.3261 110.711 38.5485Z" fill="#ED1B24"/>
<path d="M68.3201 38.5485C72.5859 37.1265 75.5039 39.141 76.4297 40.326C73.6746 38.193 70.0975 38.9188 68.6533 39.5483C67.0536 40.3481 64.5059 40.7703 63.4321 40.8814C59.5217 40.8814 57.8775 37.6968 57.5443 36.1045C57.9064 37.2064 59.0995 38.5485 59.655 38.8818C61.6991 40.4815 66.2834 39.3261 68.3201 38.5485Z" fill="#ED1B24"/>
<path d="M108.609 42.9919C104.788 40.5035 102.647 41.5848 102.055 42.4365C103.921 41.2811 105.721 42.0291 106.387 42.5475C107.809 43.614 108.831 44.0288 109.164 44.1028C111.653 44.8138 113.312 42.9178 113.83 41.881C112.053 43.9251 109.609 43.4733 108.609 42.9919Z" fill="#ED1B24"/>
<path d="M70.4378 42.9919C74.2594 40.5035 76.3997 41.5848 76.9922 42.4365C75.1259 41.2811 73.3262 42.0291 72.6596 42.5475C71.2377 43.614 70.2157 44.0288 69.8824 44.1028C67.3939 44.8138 65.735 42.9178 65.2166 41.881C66.994 43.9251 69.438 43.4733 70.4378 42.9919Z" fill="#ED1B24"/>
<path d="M95.0579 23.5515C97.6352 26.9287 94.4284 29.6985 92.5028 30.6613C95.3467 30.3947 96.5761 28.1803 96.8354 27.1064C97.4575 24.2625 95.9096 22.2925 95.0579 21.663C92.0362 19.7078 88.1703 20.1818 86.615 20.6631C81.9048 21.9962 82.1343 27.3656 82.8379 29.8837C84.3487 34.2384 89.9107 40.4373 92.5028 42.9924C102.012 53.4794 99.2053 61.8778 96.6132 64.7662C99.9014 61.9223 100.724 57.3601 100.724 55.4346C101.168 50.0133 96.7613 43.8441 94.5024 41.4371C92.3695 39.3042 88.3554 34.3273 86.615 32.1055C83.149 27.6619 85.1708 24.107 86.615 22.885C90.1699 20.5743 93.7248 22.3666 95.0579 23.5515Z" fill="#0059A9"/>
<path d="M15.1475 90.5403C14.647 91.214 14.2476 91.9165 13.9493 92.648C13.3622 94.0916 12.9724 94.977 12.7799 95.3042L12.7078 95.3909C12.6693 95.285 12.6404 95.2032 12.6211 95.1454C12.3517 94.2793 12.1303 93.6778 11.9571 93.3409C11.7838 93.0041 11.524 92.6817 11.1775 92.3737C10.3017 91.5941 9.30563 91.2044 8.18923 91.2044C7.15945 91.2044 6.3029 91.4931 5.61959 92.0705C4.93627 92.6383 4.59462 93.3553 4.59462 94.2215C4.59462 95.8384 5.81207 96.9403 8.24698 97.5274L10.6867 98.1193C14.161 98.9566 15.8982 100.79 15.8982 103.619C15.8982 105.198 15.3015 106.526 14.1081 107.604C12.9243 108.672 11.4566 109.206 9.70503 109.206C8.60788 109.206 7.3808 109.038 6.0238 108.701L4.33476 108.282C3.65145 108.119 3.08844 108.037 2.64573 108.037C2.05866 108.037 1.45233 108.225 0.826765 108.6L0.711276 108.398C1.90467 106.598 2.74197 104.885 3.22318 103.259L3.48303 103.331C3.68513 104.842 4.29146 106.016 5.30199 106.853C6.31253 107.691 7.63584 108.109 9.27195 108.109C10.5616 108.109 11.5866 107.811 12.3469 107.214C13.1072 106.617 13.4873 105.814 13.4873 104.803C13.4873 103.639 12.958 102.676 11.8993 101.916C11.139 101.377 9.57992 100.877 7.22201 100.415C5.40304 100.059 4.08454 99.4667 3.26648 98.639C2.44843 97.8113 2.03941 96.6612 2.03941 95.1887C2.03941 93.6681 2.58317 92.4362 3.6707 91.4931C4.76785 90.5403 6.19222 90.0639 7.94382 90.0639C9.06984 90.0639 10.3835 90.266 11.8849 90.6702C12.5875 90.8627 13.1072 90.9589 13.444 90.9589C13.9156 90.9589 14.4305 90.7953 14.9887 90.4681L15.1475 90.5403ZM16.0425 91.1466L15.9126 91.3632C15.518 92.0272 15.1812 92.6624 14.9021 93.2687C14.2284 94.6835 13.8482 95.4727 13.7616 95.6363L13.6894 95.7373L13.343 95.593L13.4007 95.463C13.6798 94.8278 14.084 94.0002 14.6133 92.98L15.595 91.0744L15.6672 90.9589L16.0425 91.1466ZM11.8272 94.0194C10.7685 92.8934 9.63285 92.3304 8.42021 92.3304C7.68878 92.3304 7.08246 92.5421 6.60125 92.9656C6.12004 93.389 5.87944 93.928 5.87944 94.5824C5.87944 95.2946 6.36546 96.026 7.3375 96.7767L7.45299 96.8489L7.3808 96.9644C6.11042 96.3966 5.47522 95.5737 5.47522 94.4958C5.47522 93.7451 5.7447 93.134 6.28365 92.6624C6.8226 92.1908 7.52517 91.955 8.39134 91.955C9.21902 91.955 9.94083 92.1331 10.5568 92.4892C11.1823 92.8356 11.6395 93.3265 11.9282 93.9617L11.8272 94.0194ZM15.1475 99.7506C16.4564 100.742 17.1108 102.099 17.1108 103.822C17.1108 105.66 16.3986 107.219 14.9743 108.499C13.5499 109.769 11.8175 110.405 9.77722 110.405C8.73781 110.405 7.79945 110.299 6.96215 110.087L4.65236 109.524C4.11341 109.389 3.53596 109.322 2.92002 109.322C2.37144 109.322 1.86617 109.432 1.40421 109.654L1.23098 109.235C1.73143 109.004 2.24151 108.889 2.76122 108.889C3.33867 108.889 3.99792 108.975 4.73898 109.149L6.96215 109.683C7.84758 109.894 8.78112 110 9.76278 110C11.6876 110 13.3237 109.389 14.6711 108.167C16.0281 106.935 16.7066 105.448 16.7066 103.706C16.7066 102.234 16.1869 100.944 15.1475 99.8372V99.7506ZM4.8689 103.908C5.225 105.641 6.17779 106.868 7.72727 107.589V107.705C5.93718 107.185 4.85447 105.944 4.47913 103.98L4.8689 103.908ZM3.06438 99.2309L3.55521 99.5052C3.87281 100.073 4.80154 100.545 6.3414 100.92L8.66563 101.497C10.244 101.892 11.293 102.234 11.8127 102.522C12.342 102.801 12.7174 103.23 12.9387 103.807L12.8377 103.865C12.4046 103.364 11.933 102.999 11.4229 102.768C10.9225 102.537 9.95526 102.253 8.52127 101.916C6.44245 101.435 5.04695 101.021 4.33476 100.675C3.62258 100.318 3.19912 99.8372 3.06438 99.2309ZM29.1795 93.6008L28.9341 93.4564C28.0101 92.9463 27.1632 92.6913 26.3933 92.6913C23.8621 92.6913 22.5966 95.1791 22.5966 100.155C22.5966 103.793 23.3809 106.204 24.9497 107.387L24.8197 107.532C23.8573 106.848 23.1692 105.953 22.7554 104.847C22.3512 103.73 22.149 102.224 22.149 100.328C22.149 94.9866 23.5542 92.3159 26.3644 92.3159C27.6444 92.3159 28.5828 92.7442 29.1795 93.6008ZM26.0901 90.1938C28.4288 90.1938 30.2959 91.0792 31.6914 92.8501C33.0965 94.6209 33.7991 96.9885 33.7991 99.9527C33.7991 102.753 33.1061 104.986 31.7203 106.651C30.344 108.316 28.4914 109.149 26.1623 109.149C24.3241 109.149 22.688 108.561 21.254 107.387C19.1463 105.655 18.0925 103.09 18.0925 99.6928C18.0925 96.7864 18.8143 94.4766 20.2579 92.7635C21.7015 91.0504 23.6456 90.1938 26.0901 90.1938ZM26.0901 91.4353C22.8372 91.4353 21.2107 94.2937 21.2107 100.01C21.2107 105.294 22.8131 107.936 26.018 107.936C27.5097 107.936 28.6453 107.238 29.4249 105.843C30.2045 104.438 30.5942 102.388 30.5942 99.6928C30.5942 96.642 30.2189 94.5151 29.4682 93.312C28.679 92.0609 27.553 91.4353 26.0901 91.4353ZM30.6953 90.9301C32.0715 91.5941 33.1591 92.7298 33.9579 94.337C34.7567 95.9442 35.1561 97.8017 35.1561 99.9094C35.1561 103.008 34.3669 105.511 32.7885 107.416C31.2198 109.322 29.1554 110.275 26.5954 110.275C24.9593 110.275 23.4291 109.721 22.0047 108.614V108.542C23.1981 109.418 24.6946 109.856 26.4943 109.856C28.91 109.856 30.8926 108.946 32.4421 107.127C33.9916 105.309 34.7663 102.984 34.7663 100.155C34.7663 98.0471 34.4102 96.2041 33.698 94.6257C32.9955 93.0474 31.9945 91.8684 30.6953 91.0889V90.9301ZM53.0137 90.3815L50.4296 92.4459V101.772C50.4296 103.485 50.3718 104.717 50.2563 105.467C50.1505 106.218 49.9339 106.834 49.6067 107.315C48.779 108.547 47.1718 109.163 44.785 109.163C42.2635 109.163 40.5023 108.547 39.5014 107.315C38.7026 106.343 38.3032 104.481 38.3032 101.728V92.1427L36.3398 90.3815H43.1537L41.1904 92.3015V101.743L41.2193 103.966C41.2193 105.4 41.5176 106.42 42.1143 107.026C42.711 107.623 43.7167 107.921 45.1315 107.921C46.6906 107.921 47.7637 107.464 48.3508 106.55C48.8224 105.809 49.0581 104.221 49.0581 101.786L49.1159 92.4459L46.8638 90.3815H53.0137ZM53.5045 91.3632L51.5412 92.9944V101.959C51.5412 104.895 51.3102 106.81 50.8482 107.705C49.9051 109.514 48.062 110.419 45.3192 110.419C42.9516 110.419 41.1712 109.827 39.9778 108.643L40.0933 108.701L40.5985 108.99C41.7823 109.683 43.3029 110.029 45.1604 110.029C47.8166 110.029 49.5778 109.192 50.444 107.517C50.906 106.613 51.137 104.794 51.137 102.06V92.8212L53.288 91.06L53.5045 91.3632ZM43.7601 91.161L42.3453 92.5902V103.316L42.3309 104.312L42.7784 106.146C42.9997 106.512 43.4184 106.954 44.0343 107.474L44.0632 107.604C43.2548 107.277 42.6966 106.8 42.3886 106.175C42.0806 105.549 41.9267 104.582 41.9267 103.273V92.4459L43.5579 90.8579L43.7601 91.161ZM54.3995 90.3815H61.3L59.2645 92.3592V107.792H59.38L59.8997 107.835H60.0297V92.5036L61.5888 90.9301L61.7909 91.2477L60.3906 92.6768V107.835C60.8237 107.873 61.2375 107.893 61.6321 107.893C63.1623 107.893 64.3172 107.556 65.0968 106.882C65.886 106.199 66.4153 105.078 66.6848 103.518C67.5894 106.146 68.5182 107.941 69.4709 108.903H54.3995L56.3917 107.272V92.2149L54.3995 90.3815ZM70.8857 108.788L70.2361 110.087H55.1647L54.8038 109.697H70.0773L70.4959 108.788C69.4373 107.488 68.5903 106.04 67.9551 104.442L67.8974 104.284L68.3594 104.457L68.4604 104.702C69.1052 106.127 69.8752 107.44 70.7702 108.643L70.8857 108.788ZM90.0425 90.3815L88.0648 92.3881V107.214L89.8404 108.903H83.1998L85.2064 107.214V97.4985L80.6301 110.087H79.2443L79.1288 109.697H80.3847L85.2064 96.2715V94.0627L79.8361 108.889H78.8256L74.8701 97.2387V104.875C74.8701 105.896 74.9375 106.617 75.0722 107.041C75.2069 107.464 75.5245 107.931 76.025 108.441L77.3242 110.087H69.7741L69.5143 109.697H76.6024L76.0683 108.903H69.6297L69.9329 108.744C71.0012 108.157 71.7037 107.565 72.0406 106.969C72.3871 106.362 72.5603 105.41 72.5603 104.11V92.1716L70.6547 90.3815H78.1182L76.025 92.2726L80.1104 104.356L80.6301 103.1L76.9345 92.3881L78.8256 90.9878L79.1288 91.2332L77.3242 92.5036L80.7601 102.566L84.4846 92.2726L82.7234 90.3815H90.0425ZM73.7008 93.8029V104.168C73.7008 105.756 73.8499 106.848 74.1483 107.445C74.4562 108.042 75.0866 108.475 76.0394 108.744L75.9095 108.528C74.9663 107.873 74.4947 106.93 74.4947 105.698V104.63V96.0982L73.7008 93.8029ZM90.851 91.5075L89.2197 92.6768V107.229L91.7316 110.087H84.0659L83.8638 109.697H90.851L88.8443 107.431V92.4314L90.5478 91.2621L90.851 91.5075ZM105.59 90.3815L104.089 92.085L106.457 98.3791L107.034 98.0616L104.897 92.3737L106.428 90.6125L106.803 90.7713L105.345 92.4603L107.366 97.845C107.481 97.7584 107.549 97.7055 107.568 97.6862L108.044 97.282C108.333 97.051 108.516 96.8874 108.593 96.7912C108.843 97.8883 109.228 98.87 109.748 99.7362C109.469 99.7169 109.267 99.7073 109.142 99.7073C108.227 99.7073 107.558 99.8516 107.135 100.14L109.748 107.229L111.913 108.903H104.623L106.615 107.229L105.013 103.013C103.954 104.081 103.141 105.097 102.573 106.059L102.241 105.973C102.809 105.029 103.656 103.976 104.782 102.811L104.897 102.667L104.623 102.032C103.478 102.984 102.53 104.091 101.779 105.352L101.519 104.933C101.019 104.134 100.379 103.225 99.5993 102.205L99.4549 102.032C98.7139 103.677 98.3434 105.015 98.3434 106.045C98.3434 106.651 98.4444 107.166 98.6465 107.589C98.8583 108.003 99.3587 108.701 100.148 109.683C100.215 109.769 100.321 109.904 100.465 110.087H92.6699L92.3812 109.697H99.7292L99.4838 109.394C98.8486 108.624 98.43 108.027 98.2279 107.604C98.0354 107.171 97.9391 106.666 97.9391 106.088C97.9391 105.106 98.3385 103.644 99.1374 101.699L98.5022 101.035C98.377 101.343 98.2182 101.796 98.0258 102.392L97.5494 103.865C97.2895 104.654 97.1596 105.309 97.1596 105.828C97.1596 106.367 97.251 106.815 97.4339 107.171C97.6167 107.527 98.0017 108.013 98.5888 108.629C98.6465 108.687 98.7331 108.778 98.8486 108.903H91.6305C93.0068 108.191 94.0943 107.233 94.8931 106.03C95.7015 104.827 96.5003 102.97 97.2895 100.458L97.3473 100.256C96.8372 99.8228 96.1009 99.5581 95.1385 99.4619C95.6679 98.6727 96.0769 97.8498 96.3656 96.9933C96.5003 97.1184 96.5821 97.1954 96.611 97.2243L97.2606 97.8306C97.482 98.0423 97.7467 98.2588 98.0546 98.4802L98.3145 97.845L98.1413 97.7006C97.66 97.2772 97.2558 96.9355 96.9286 96.6757L96.7987 96.5746L97.0297 96.257C97.5397 96.5939 98.0306 96.9836 98.5022 97.4264L100.465 92.0272L98.9352 90.3815H105.59ZM102.025 95.0155L100.437 99.202C100.523 99.2983 100.571 99.356 100.581 99.3752L101.173 100.039C101.49 100.386 101.895 100.925 102.385 101.656L102.53 101.873C102.944 101.353 103.435 100.838 104.002 100.328L102.025 95.0155ZM101.375 93.3409L99.0796 99.4041C99.811 100.155 100.441 100.896 100.971 101.627L101.635 102.551C101.644 102.561 101.693 102.623 101.779 102.739C101.866 102.652 101.914 102.599 101.924 102.58L102.126 102.335C102.155 102.296 102.207 102.234 102.284 102.147C101.611 101.108 100.826 100.169 99.9313 99.3319L101.779 94.4525L101.375 93.3409ZM109.863 97.4841C110.075 98.3503 110.605 99.5389 111.451 101.05C111.24 101.021 111.119 101.007 111.091 101.007L109.921 100.905C109.392 100.857 109.007 100.833 108.766 100.833C108.728 100.833 108.632 100.838 108.478 100.848L110.888 107.243L114.108 110.087H105.749L105.475 109.697H113.14L110.542 107.402L107.972 100.602C108.3 100.516 108.675 100.472 109.098 100.472C109.618 100.472 110.195 100.516 110.831 100.602L110.657 100.285C110.042 99.1491 109.628 98.1241 109.416 97.2098L109.863 97.4841ZM130.695 90.3815C130.608 90.5451 130.551 90.6558 130.522 90.7135L129.54 92.4459C129.203 93.0618 128.89 93.8317 128.602 94.7557L128.573 94.8278L128.428 94.7268L128.385 94.5391C128.106 93.442 127.707 92.6817 127.187 92.2582C126.677 91.8347 125.892 91.623 124.834 91.623C124.401 91.623 123.968 91.6423 123.535 91.6807H123.361V107.33L125.065 108.903H118.467L120.489 107.214V92.8501L119.464 92.8356C118.472 92.8356 117.765 93.0329 117.341 93.4275C116.928 93.8125 116.682 94.4958 116.605 95.4775H116.23C116.336 94.3514 116.624 93.5671 117.096 93.1244C117.577 92.6817 118.366 92.4603 119.464 92.4603L120.33 92.4747H120.489V91.7674C119.998 91.7096 119.531 91.6807 119.088 91.6807C117.847 91.6807 116.952 91.9358 116.403 92.4459C115.854 92.9463 115.551 93.7981 115.494 95.0011H115.32C114.907 93.6633 114.267 92.1716 113.4 90.5259L113.314 90.3815H130.695ZM131.604 91.291C130.94 92.1379 130.243 93.543 129.511 95.5063L129.453 95.6507L129.136 95.3764L129.179 95.2465C129.891 93.2543 130.579 91.8684 131.243 91.0889L131.316 91.0022L131.604 91.291ZM127.75 93.543C127.009 93.0618 126.143 92.8212 125.151 92.8212C124.93 92.8212 124.699 92.8356 124.458 92.8645L124.516 107.373L126.812 110.087H119.435L119.103 109.697H126.018L124.083 107.488V92.4459L124.863 92.4314C125.796 92.4314 126.455 92.5084 126.84 92.6624C127.235 92.8068 127.538 93.1003 127.75 93.543ZM147.369 90.3815L147.138 90.6558C146.156 91.8588 145.377 93.2399 144.799 94.799C144.703 94.5776 144.631 94.414 144.583 94.3081C144.053 93.1532 143.485 92.4074 142.879 92.0705C142.273 91.7337 141.185 91.5653 139.616 91.5653C138.895 91.5653 138.028 91.5893 137.018 91.6374V98.2781H137.942V92.4026C138.673 92.3352 139.371 92.3015 140.035 92.3015C141.257 92.3015 142.157 92.4314 142.735 92.6913C143.312 92.9511 143.827 93.4564 144.279 94.2071C144.145 94.1108 144.048 94.0387 143.991 93.9905C143.211 93.3746 142.648 93.0089 142.302 92.8934C141.955 92.7779 141.272 92.7202 140.252 92.7202C139.944 92.7202 139.395 92.7394 138.606 92.7779L138.303 92.7923V98.2781H140.959L142.821 95.7229V101.945L140.959 99.534H137.018V107.633H137.942V100.213H141.075L141.45 100.588H138.303V107.633C140.266 107.633 141.662 107.493 142.489 107.214C143.317 106.935 143.967 106.386 144.438 105.568L145.203 104.255C145.232 104.197 145.29 104.091 145.377 103.937C145.627 104.996 145.935 105.843 146.3 106.478C146.676 107.113 147.292 107.854 148.148 108.701H131.965L134.16 107.026V100.588C133.351 100.684 132.62 100.934 131.965 101.339L131.763 101.035C132.35 100.612 133.149 100.338 134.16 100.213V99.534C133.996 99.5148 133.88 99.5052 133.813 99.5052C132.831 99.5052 131.936 99.8661 131.128 100.588C131.571 99.048 132.581 98.2781 134.16 98.2781V92.1138L131.965 90.3815H147.369ZM148.062 91.392L147.961 91.5219C146.786 93.1003 146.002 94.4236 145.608 95.4919L145.362 95.1887C146.007 93.697 146.839 92.3304 147.86 91.0889L148.062 91.392ZM143.817 96.1993V102.58L143.457 102.392V96.0116L143.817 96.1993ZM149.794 108.788L149.043 110.087H133.279L133.048 109.697H148.856L149.346 108.788C147.961 107.508 146.984 106.141 146.416 104.688L146.878 104.861C147.407 106.093 148.302 107.325 149.563 108.557L149.794 108.788Z" fill="#ED1B24"/>
<path d="M175.317 90.3815L172.141 92.4603L167.522 98.3358L172.805 107.012L175.317 108.903H167.868L169.702 107.127L166.41 101.757L162.339 107.012L164.707 110.087H156.81L156.593 109.697H163.942L161.877 107.012L166.208 101.396L165.804 100.761L161.083 106.738L162.844 108.903H156.218L159.596 106.738L165.183 99.664L160.679 92.3159L157.936 90.3815H165.558L163.667 92.0272L166.886 97.282L167.406 96.6179L164.707 92.3159L166.309 90.7857L166.569 91.0311L165.183 92.3159L167.637 96.3292L170.77 92.3159L168.965 90.3815H175.317ZM175.837 91.4786L173.022 93.1388L168.936 98.4369L173.917 106.666L177.439 110.087H168.474L168.215 109.697H176.515L173.585 106.853L168.474 98.4369L172.762 92.8934L175.62 91.1899L175.837 91.4786Z" fill="#0059A9"/>
</svg>
