<svg width="60" height="44" viewBox="0 0 60 44" fill="none" xmlns="http://www.w3.org/2000/svg">
<path d="M52.0754 6.9546C56.7961 4.59425 58.0231 1.33472 58.0466 0C59.7887 4.6645 52.8716 8.8279 49.1952 10.3265C36.1081 16.0167 34.2557 22.1049 35.286 25.0085C32.6447 18.8828 39.618 13.277 43.4349 11.2398C45.6266 10.2282 50.1085 7.9615 52.0754 6.9546Z" fill="#ED1B24"/>
<path d="M7.7899 6.9546C3.0692 4.59425 1.84219 1.33472 1.81878 0C0.0766182 4.6645 6.99375 8.8279 10.6701 10.3265C13.0132 11.2398 17.7838 13.4596 19.2449 15.0332C20.7202 16.1103 22.8476 20.2155 26.7716 25.2916L30.1335 29.4341C31.4448 30.9093 33.7723 34.7028 32.5921 38.0747C31.8897 39.5967 29.38 42.0497 26.4103 42.1491C24.6307 42.2662 21.0011 41.3483 20.7202 36.74C20.8372 35.5223 21.9425 33.0309 25.4268 32.8061C23.1789 32.4548 18.7953 33.0168 19.2449 38.0747C19.7835 40.3929 22.3078 44.7624 28.0962 43.6946C30.6252 43.2731 35.4723 40.8706 34.6294 34.6325C34.3952 33.5085 33.5897 30.8953 32.2409 29.4341L27.6748 24.1655C25.7078 21.777 22.2655 15.6668 20.5796 14.1495L19.9046 13.5661C19.4655 13.1866 18.9976 12.8417 18.5052 12.5344L16.4305 11.2398C14.2387 10.2282 9.75686 7.9615 7.7899 6.9546Z" fill="#ED1B24"/>
<path d="M47.5538 13.6987C41.2595 15.8343 38.562 19.5528 38 21.1451C39.3488 18.0541 45.54 15.5018 48.467 14.612C52.6257 13.7671 55.8665 12.0588 56.9671 11.3103C60.7886 8.16315 60.1985 3.91078 59.4258 2.17798C60.2126 5.9995 57.5993 9.0155 56.1944 10.0458C54.8456 11.0574 49.872 12.9026 47.5538 13.6987Z" fill="#ED1B24"/>
<path d="M12.4384 13.6282C18.7327 15.7637 21.4302 19.4822 21.9922 21.0745C20.6434 17.9836 14.4522 15.4312 11.5252 14.5414C7.36645 13.6965 4.12565 11.9883 3.02509 11.2397C-0.796432 8.0926 -0.206345 3.84022 0.566389 2.10742C-0.220396 5.92894 2.39285 8.94494 3.79782 9.97526C5.14659 10.9868 10.1202 12.832 12.4384 13.6282Z" fill="#ED1B24"/>
<path d="M29.8243 1.10151C29.8666 0.914387 30.1332 0.914387 30.1755 1.10151L30.7313 3.56195C30.756 3.6714 30.8737 3.7318 30.9771 3.68804L32.2801 3.13609C32.4291 3.073 32.5792 3.2231 32.5161 3.37204L31.9641 4.67512C31.9204 4.77844 31.9808 4.89618 32.0902 4.92091L34.5507 5.47668C34.7378 5.51895 34.7378 5.78557 34.5507 5.82784L32.0902 6.38362C31.9808 6.40834 31.9204 6.52608 31.9641 6.6294L32.5161 7.93248C32.5792 8.08142 32.4291 8.23152 32.2801 8.16843L30.9771 7.61648C30.8737 7.57272 30.756 7.63312 30.7313 7.74257L30.1755 10.203C30.1332 10.3901 29.8666 10.3901 29.8243 10.203L29.2686 7.74257C29.2438 7.63312 29.1261 7.57272 29.0228 7.61648L27.7197 8.16843C27.5708 8.23152 27.4207 8.08142 27.4837 7.93248L28.0357 6.6294C28.0795 6.52608 28.0191 6.40834 27.9096 6.38362L25.4492 5.82784C25.262 5.78557 25.262 5.51895 25.4492 5.47668L27.9096 4.92091C28.0191 4.89618 28.0795 4.77844 28.0357 4.67512L27.4837 3.37204C27.4207 3.2231 27.5708 3.073 27.7197 3.13609L29.0228 3.68804C29.1261 3.7318 29.2438 3.6714 29.2686 3.56195L29.8243 1.10151Z" fill="#0059A9"/>
<path d="M47.6328 17.4219C42.2939 18.0962 39.6947 20.9343 39.0625 22.269C40.9171 19.1219 45.5488 18.3819 47.6328 18.4053C49.094 18.4615 51.5199 18.1009 52.5502 17.9136C58.0577 16.902 58.6384 13.043 58.2403 11.24C58.0156 16.0169 51.075 17.3516 47.6328 17.4219Z" fill="#ED1B24"/>
<path d="M12.3984 17.4219C17.7373 18.0962 20.3365 20.9343 20.9688 22.269C19.1142 19.1219 14.4825 18.3819 12.3984 18.4053C10.9373 18.4615 8.51135 18.1009 7.48103 17.9136C1.97355 16.902 1.39283 13.043 1.7909 11.24C2.0157 16.0169 8.95625 17.3516 12.3984 17.4219Z" fill="#ED1B24"/>
<path d="M44.9629 21.1447C41.029 21.2009 39.0621 23.1819 38.5703 24.1654C40.2001 21.805 43.5111 21.7301 44.9629 21.9877C47.0423 22.3739 49.2949 22.2891 50.1613 22.1984C53.0275 21.805 54.2123 19.3182 54.4465 18.124C54.1552 18.8474 53.3225 19.9037 52.7605 20.3017C51.2431 21.5943 46.9299 21.4023 44.9629 21.1447Z" fill="#ED1B24"/>
<path d="M15.0605 21.1447C18.9944 21.2009 20.9614 23.1819 21.4531 24.1654C19.8234 21.805 16.5123 21.7301 15.0605 21.9877C12.9812 22.3739 10.7285 22.2891 9.86212 22.1984C6.99598 21.805 5.81112 19.3182 5.57696 18.124C5.94629 18.8834 6.70094 19.9037 7.26292 20.3017C8.78029 21.5943 13.0936 21.4023 15.0605 21.1447Z" fill="#ED1B24"/>
<path d="M43.4094 24.3765C40.7118 23.4774 38.8667 24.7512 38.2812 25.5005C40.0234 24.1517 42.2854 24.6107 43.1986 25.0088C44.2102 25.5145 45.8213 25.7815 46.5003 25.8517C48.9731 25.8517 50.0128 23.838 50.2235 22.8311C50.0544 23.3838 49.24 24.3765 48.8888 24.5873C47.5962 25.5988 44.6973 24.8683 43.4094 24.3765Z" fill="#ED1B24"/>
<path d="M16.6062 24.3765C19.3038 23.4774 21.149 24.7512 21.7344 25.5005C19.9922 24.1517 17.7302 24.6107 16.817 25.0088C15.8054 25.5145 14.1944 25.7815 13.5153 25.8517C11.0426 25.8517 10.0029 23.838 9.79213 22.8311C10.0211 23.5278 10.7756 24.3765 11.1268 24.5873C12.4194 25.5988 15.3183 24.8683 16.6062 24.3765Z" fill="#ED1B24"/>
<path d="M42.0743 27.1861C39.6578 25.6125 38.3043 26.2963 37.9297 26.8348C39.1099 26.1042 40.2479 26.5772 40.6694 26.9051C41.5686 27.5794 42.2148 27.8417 42.4256 27.8885C43.9992 28.3381 45.0482 27.1392 45.376 26.4836C44.2521 27.7761 42.7066 27.4905 42.0743 27.1861Z" fill="#ED1B24"/>
<path d="M17.9335 27.1861C20.35 25.6125 21.7035 26.2963 22.0781 26.8348C20.898 26.1042 19.7599 26.5772 19.3384 26.9051C18.4393 27.5794 17.793 27.8417 17.5822 27.8885C16.0087 28.3381 14.9596 27.1392 14.6318 26.4836C15.7558 27.7761 17.3012 27.4905 17.9335 27.1861Z" fill="#ED1B24"/>
<path d="M33.5175 14.8927C35.1473 17.0283 33.1195 18.7798 31.9018 19.3886C33.7002 19.22 34.4776 17.8198 34.6415 17.1407C35.0349 15.3423 34.0561 14.0966 33.5175 13.6985C31.6068 12.4621 29.1621 12.7619 28.1786 13.0663C25.2001 13.9093 25.3453 17.3046 25.7902 18.8969C26.7456 21.6506 30.2627 25.5705 31.9018 27.1862C37.9151 33.8177 36.1401 39.1285 34.501 40.9549C36.5804 39.1566 37.1002 36.2717 37.1002 35.0541C37.3812 31.6259 34.5947 27.7248 33.1663 26.2027C31.8175 24.854 29.2792 21.7068 28.1786 20.3019C25.9869 17.4919 27.2654 15.244 28.1786 14.4713C30.4266 13.0101 32.6746 14.1434 33.5175 14.8927Z" fill="#0059A9"/>
</svg>
