<svg width="110" height="110" viewBox="0 0 110 110" fill="none" xmlns="http://www.w3.org/2000/svg">
<rect width="110" height="110" rx="10" fill="#1F1D1E"/>
<path d="M76.8348 76.6944C76.7026 75.5899 76.3948 74.514 75.9231 73.5078C75.7878 73.2228 75.5968 72.968 75.3615 72.7587C75.2122 72.6493 75.0377 72.5796 74.8544 72.5563C74.6498 72.5275 74.442 72.5309 74.2385 72.5664C74.0111 72.6044 73.788 72.6648 73.5723 72.7466C73.3486 72.831 73.1313 72.9318 72.9222 73.0483C72.7773 73.1292 72.6364 73.2183 72.5076 73.3074C72.3842 73.3934 72.2659 73.4867 72.1534 73.5868C72.0563 73.6733 71.9661 73.7674 71.8837 73.8682C71.8173 73.9485 71.7624 74.0377 71.7207 74.1334C71.5677 74.512 71.6019 74.9432 71.7106 75.4534C71.8193 75.9636 72.0065 76.6114 72.1474 77.3787C72.2659 78.0218 72.3259 78.6743 72.3265 79.3284C72.3297 80.0359 72.2493 80.7413 72.087 81.4298C71.8125 82.657 71.1969 83.7804 70.3118 84.6691C69.4971 85.4854 68.4225 85.9872 67.2767 86.0862C66.2656 86.1569 65.2586 85.8985 64.4047 85.3493C63.8616 85.0042 63.3743 84.5775 62.9596 84.084C62.5978 83.66 62.2719 83.2063 61.9855 82.7275C61.2859 81.5444 60.8543 80.2206 60.7215 78.8506C60.5969 77.4292 60.6776 75.9972 60.9611 74.599C61.2586 73.0969 61.6622 71.6179 62.1687 70.1734C62.6678 68.7097 63.2595 67.1893 63.8995 65.6061C64.5033 64.0958 65.1635 62.5328 65.8196 60.9152C66.4556 59.3523 67.0936 57.7388 67.6994 56.0746C68.2911 54.455 68.8506 52.7807 69.3458 51.0619C69.8328 49.3754 70.2555 47.6444 70.5855 45.8689C70.9136 44.1296 71.1361 42.3717 71.2517 40.6052C71.3067 39.7575 71.3342 38.8998 71.3342 38.032C71.3355 37.0609 71.2858 36.0905 71.1853 35.1247C70.9934 33.2237 70.5689 31.3537 69.9214 29.5573C69.2493 27.6882 68.28 25.9413 67.0514 24.3846C65.8187 22.8222 64.2861 21.525 62.545 20.5704C60.7345 19.592 58.7207 19.0552 56.6661 19.0034C54.6118 18.958 52.5728 19.3664 50.6925 20.1999C48.851 21.0155 47.1562 22.1319 45.677 23.5039L45.4435 23.7206C44.0702 25.0502 43.0139 26.6754 42.3541 28.4742C41.659 30.3375 41.2334 32.2915 41.0902 34.2765C41.0741 34.489 41.0579 34.6996 41.0459 34.9101C40.9642 36.6642 41.1234 38.4211 41.5188 40.1314C41.9633 41.9554 42.6157 43.7217 43.463 45.3952C44.2017 46.8994 45.0631 48.4138 45.991 50.0253C46.7739 51.3838 47.6011 52.811 48.4403 54.3618C48.6255 54.7033 48.8107 55.0515 48.9958 55.4065C48.6383 55.1728 48.262 54.9697 47.8708 54.7991C47.4062 54.5964 46.9264 54.4312 46.4357 54.3051C44.63 53.8488 42.742 53.8335 40.9292 54.2606C38.6669 54.783 36.6176 55.9889 35.0562 57.7165C33.8533 59.0217 32.9637 60.587 32.4559 62.2919C31.8744 64.2984 31.8487 66.4264 32.3814 68.4465C32.9033 70.4548 33.9369 72.2915 35.3803 73.7751C36.8423 75.2816 38.6996 76.3396 40.7359 76.826C42.1345 77.1515 43.58 77.2201 45.0028 77.0285C45.6115 76.9498 46.2135 76.826 46.8041 76.658C48.7805 76.0973 50.5817 75.0381 52.037 73.5807C53.4741 72.1292 54.5343 70.3444 55.1244 68.3837C55.1747 68.2177 55.225 68.0477 55.2693 67.8756C55.7313 66.1785 55.9348 64.4208 55.8731 62.6624C55.7891 60.7634 55.429 58.887 54.8044 57.0929C54.2095 55.3913 53.4834 53.7389 52.6327 52.151C51.8276 50.6266 50.9703 49.1365 50.131 47.6586C49.3118 46.2131 48.5208 44.7777 47.8406 43.3322C47.1702 41.9401 46.6403 40.4839 46.2586 38.9855C45.8971 37.554 45.7613 36.0743 45.8561 34.6004C45.9622 33.1489 46.2964 31.7234 46.8463 30.3772L46.8624 30.3367C47.3929 29.008 48.1664 27.7912 49.1428 26.7493C50.1031 25.7248 51.2566 24.903 52.5361 24.332C53.6846 23.8123 54.9259 23.532 56.1851 23.508C56.2736 23.508 56.3641 23.508 56.4527 23.508C57.8189 23.5834 59.1479 23.983 60.3311 24.6741C61.5783 25.3756 62.6957 26.2886 63.6339 27.3728C64.325 28.1578 64.898 29.0404 65.3346 29.9926C65.4835 30.3266 65.6224 30.6789 65.7472 31.0494C66.208 32.4776 66.4787 33.961 66.5522 35.4608C66.6362 37.0361 66.6039 38.6156 66.4556 40.1861C66.3308 41.6478 66.1154 43.2573 65.8055 45.0267C65.7471 45.3668 65.6827 45.711 65.6163 46.0633C65.3627 47.3327 65.0608 48.5636 64.7227 49.7641C64.2719 51.3716 63.7546 52.9224 63.2052 54.4205C62.6235 56.0118 61.9976 57.5505 61.3797 59.0446C60.7095 60.644 60.0373 62.1947 59.4013 63.701C58.7089 65.355 58.0608 66.9666 57.5114 68.5599C56.9042 70.2669 56.441 72.0223 56.1267 73.8075C55.9406 74.9091 55.845 76.0244 55.8409 77.1419C55.849 79.8733 56.4928 82.5649 57.7207 85.0011C58.6968 86.8859 60.0433 88.5157 61.746 89.5988C63.2039 90.526 64.8959 91.0123 66.6206 90.9998C67.1067 90.9992 67.5919 90.96 68.0717 90.8823C70.1925 90.5232 72.1414 89.4851 73.6287 87.9225C75.0651 86.4254 76.0829 84.5732 76.5792 82.5534C77.0345 80.6346 77.1213 78.646 76.8348 76.6944ZM45.4697 71.9449C44.2936 72.2671 43.0556 72.2845 41.8711 71.9955C41.1785 71.8266 40.5164 71.55 39.9087 71.1756C39.1987 70.7378 38.5834 70.1609 38.0994 69.4793C37.6154 68.7976 37.2724 68.0251 37.091 67.2075C36.8199 66.0431 36.8448 64.8288 37.1635 63.6767C37.4617 62.5732 38.045 61.5687 38.8541 60.7654C39.7063 59.9156 40.7709 59.3132 41.9353 59.0217C43.0998 58.7302 44.3209 58.7605 45.4697 59.1094C46.4927 59.4159 47.4264 59.9675 48.1908 60.7168C49.8009 62.296 50.7167 64.8084 50.0988 68.0618C49.7267 68.8348 49.2249 69.5375 48.6155 70.139C47.7374 71.0013 46.6544 71.623 45.4697 71.9449Z" fill="white"/>
</svg>
