<svg width="231" height="104" viewBox="0 0 231 104" fill="none" xmlns="http://www.w3.org/2000/svg">
<path d="M67.4561 32.8586C73.4839 29.8447 75.0507 25.6826 75.0806 23.9783C77.3052 29.9344 68.4727 35.2506 63.7784 37.1642C47.0674 44.4299 44.7022 52.2039 46.0178 55.9115C42.645 48.0897 51.5493 40.9316 56.423 38.3303C59.2216 37.0386 64.9445 34.1443 67.4561 32.8586Z" fill="#ED1B24"/>
<path d="M10.9093 32.8586C4.88148 29.8447 3.31472 25.6826 3.28482 23.9783C1.06026 29.9344 9.89273 35.2506 14.587 37.1642C17.579 38.3303 23.6705 41.1648 25.5362 43.1741C27.4199 44.5495 30.1365 49.7914 35.147 56.273L39.4398 61.5626C41.1142 63.4463 44.0862 68.2901 42.5793 72.5958C41.6823 74.5393 38.4776 77.6714 34.6856 77.7984C32.4132 77.9479 27.7787 76.7758 27.4199 70.8915C27.5694 69.3367 28.9807 66.1553 33.4298 65.8682C30.5594 65.4197 24.9622 66.1373 25.5362 72.5958C26.2239 75.5559 29.4472 81.1352 36.8385 79.7718C40.0677 79.2336 46.257 76.1658 45.1806 68.2004C44.8816 66.7652 43.853 63.4284 42.1308 61.5626L36.3002 54.8351C33.7886 51.7853 29.3932 43.9832 27.2404 42.0457L26.3786 41.3008C25.8179 40.8162 25.2204 40.3757 24.5917 39.9834L21.9424 38.3303C19.1438 37.0386 13.4209 34.1443 10.9093 32.8586Z" fill="#ED1B24"/>
<path d="M61.6836 41.4699C53.6465 44.1967 50.202 48.9449 49.4844 50.9781C51.2066 47.0313 59.1122 43.7722 62.8497 42.636C68.1599 41.5571 72.2981 39.3758 73.7034 38.4201C78.5831 34.4015 77.8296 28.9716 76.8429 26.759C77.8476 31.6387 74.5107 35.4898 72.7167 36.8055C70.9945 38.0971 64.6437 40.4533 61.6836 41.4699Z" fill="#ED1B24"/>
<path d="M16.8398 41.38C24.877 44.1069 28.3215 48.855 29.0391 50.8882C27.3168 46.9414 19.4112 43.6823 15.6737 42.5461C10.3635 41.4673 6.22532 39.286 4.82002 38.3302C-0.0596695 34.3116 0.693811 28.8818 1.68051 26.6692C0.675871 31.5489 4.01272 35.4 5.80672 36.7156C7.52896 38.0073 13.8797 40.3634 16.8398 41.38Z" fill="#ED1B24"/>
<path d="M39.0401 25.3849C39.0941 25.1459 39.4345 25.1459 39.4885 25.3849L40.1982 28.5266C40.2297 28.6663 40.3801 28.7435 40.512 28.6876L42.1759 27.9828C42.3661 27.9022 42.5577 28.0939 42.4772 28.2841L41.7724 29.948C41.7165 30.0799 41.7937 30.2303 41.9334 30.2618L45.0751 30.9715C45.3141 31.0255 45.3141 31.3659 45.0751 31.4199L41.9334 32.1296C41.7937 32.1611 41.7165 32.3115 41.7724 32.4434L42.4772 34.1073C42.5577 34.2975 42.3661 34.4891 42.1759 34.4086L40.512 33.7038C40.3801 33.6479 40.2297 33.725 40.1982 33.8648L39.4885 37.0065C39.4345 37.2455 39.0941 37.2455 39.0401 37.0065L38.3304 33.8648C38.2989 33.725 38.1485 33.6479 38.0166 33.7038L36.3527 34.4086C36.1625 34.4891 35.9709 34.2975 36.0514 34.1073L36.7562 32.4434C36.8121 32.3115 36.7349 32.1611 36.5952 32.1296L33.4535 31.4199C33.2145 31.3659 33.2145 31.0255 33.4535 30.9715L36.5952 30.2618C36.7349 30.2303 36.8121 30.0799 36.7562 29.948L36.0514 28.2841C35.9709 28.0939 36.1625 27.9022 36.3527 27.9828L38.0166 28.6876C38.1485 28.7435 38.2989 28.6663 38.3304 28.5266L39.0401 25.3849Z" fill="#0059A9"/>
<path d="M61.7715 46.2242C54.9543 47.0853 51.6354 50.7092 50.8281 52.4135C53.1962 48.3949 59.1104 47.4501 61.7715 47.48C63.6373 47.5517 66.735 47.0913 68.0506 46.8521C75.083 45.5604 75.8246 40.6329 75.3163 38.3306C75.0292 44.4302 66.1669 46.1345 61.7715 46.2242Z" fill="#ED1B24"/>
<path d="M16.7831 46.2242C23.6004 47.0853 26.9193 50.7092 27.7266 52.4135C25.3585 48.3949 19.4442 47.4501 16.7831 47.48C14.9174 47.5517 11.8197 47.0913 10.5041 46.8521C3.47164 45.5604 2.73012 40.6329 3.23842 38.3306C3.52546 44.4302 12.3878 46.1345 16.7831 46.2242Z" fill="#ED1B24"/>
<path d="M58.3658 50.9782C53.3426 51.05 50.831 53.5795 50.2031 54.8353C52.2842 51.8214 56.512 51.7257 58.3658 52.0546C61.021 52.5478 63.8973 52.4395 65.0036 52.3237C68.6634 51.8214 70.1764 48.646 70.4754 47.1211C70.1034 48.0448 69.0402 49.3935 68.3226 49.9018C66.385 51.5523 60.8774 51.3071 58.3658 50.9782Z" fill="#ED1B24"/>
<path d="M20.1888 50.9782C25.2121 51.05 27.7237 53.5795 28.3516 54.8353C26.2705 51.8214 22.0427 51.7257 20.1888 52.0546C17.5337 52.5478 14.6573 52.4395 13.551 52.3237C9.89127 51.8214 8.37833 48.646 8.07933 47.1211C8.55092 48.0908 9.51453 49.3935 10.2321 49.9018C12.1697 51.5523 17.6772 51.3071 20.1888 50.9782Z" fill="#ED1B24"/>
<path d="M56.384 55.1043C52.9396 53.9561 50.5834 55.5827 49.8359 56.5395C52.0605 54.8172 54.9488 55.4033 56.1149 55.9116C57.4066 56.5574 59.4638 56.8983 60.3309 56.988C63.4883 56.988 64.8159 54.4166 65.085 53.1309C64.8691 53.8367 63.8292 55.1043 63.3807 55.3734C61.7302 56.665 58.0286 55.7322 56.384 55.1043Z" fill="#ED1B24"/>
<path d="M22.155 55.1043C25.5995 53.9561 27.9556 55.5827 28.7031 56.5395C26.4786 54.8172 23.5902 55.4033 22.4241 55.9116C21.1324 56.5574 19.0753 56.8983 18.2082 56.988C15.0508 56.988 13.7232 54.4166 13.4541 53.1309C13.7465 54.0206 14.7099 55.1043 15.1584 55.3734C16.8089 56.665 20.5105 55.7322 22.155 55.1043Z" fill="#ED1B24"/>
<path d="M54.6907 58.6924C51.6051 56.6831 49.8768 57.5562 49.3984 58.2439C50.9054 57.311 52.3585 57.915 52.8967 58.3336C54.0449 59.1947 54.8701 59.5296 55.1392 59.5894C57.1485 60.1635 58.4881 58.6326 58.9067 57.7954C57.4715 59.4459 55.498 59.0811 54.6907 58.6924Z" fill="#ED1B24"/>
<path d="M23.8639 58.6924C26.9496 56.6831 28.6778 57.5562 29.1562 58.2439C27.6493 57.311 26.1961 57.915 25.6579 58.3336C24.5098 59.1947 23.6845 59.5296 23.4154 59.5894C21.4062 60.1635 20.0666 58.6326 19.648 57.7954C21.0832 59.4459 23.0566 59.0811 23.8639 58.6924Z" fill="#ED1B24"/>
<path d="M43.748 42.9949C45.8291 45.7217 43.2397 47.9583 41.6849 48.7357C43.9812 48.5204 44.9739 46.7324 45.1832 45.8653C45.6856 43.5689 44.4357 41.9782 43.748 41.4699C41.3082 39.8912 38.1866 40.2739 36.9308 40.6626C33.1275 41.739 33.3129 46.0745 33.881 48.1078C35.1009 51.624 39.5919 56.6293 41.6849 58.6924C49.3633 67.1601 47.0968 73.9414 45.0038 76.2736C47.6589 73.9773 48.3227 70.2936 48.3227 68.7388C48.6815 64.3614 45.1234 59.3801 43.2995 57.4366C41.5773 55.7143 38.3361 51.6958 36.9308 49.9018C34.1322 46.3137 35.7647 43.4434 36.9308 42.4567C39.8012 40.5909 42.6716 42.0381 43.748 42.9949Z" fill="#0059A9"/>
<path d="M98.4624 44.1976C98.0583 44.7415 97.7359 45.3088 97.4949 45.8994C97.0209 47.0651 96.7062 47.78 96.5508 48.0442L96.4925 48.1141C96.4614 48.0287 96.4381 47.9626 96.4226 47.916C96.205 47.2166 96.0262 46.7309 95.8864 46.4589C95.7465 46.1869 95.5367 45.9266 95.2569 45.6779C94.5497 45.0485 93.7454 44.7338 92.844 44.7338C92.0125 44.7338 91.3209 44.9669 90.7691 45.4331C90.2174 45.8916 89.9415 46.4706 89.9415 47.17C89.9415 48.4755 90.9246 49.3653 92.8906 49.8393L94.8606 50.3172C97.6659 50.9933 99.0686 52.4737 99.0686 54.7584C99.0686 56.0328 98.5868 57.1052 97.6232 57.9755C96.6673 58.8381 95.4823 59.2694 94.0679 59.2694C93.182 59.2694 92.1912 59.1334 91.0955 58.8614L89.7317 58.5234C89.18 58.3913 88.7254 58.3252 88.3679 58.3252C87.8939 58.3252 87.4043 58.4768 86.8992 58.7798L86.8059 58.6167C87.7695 57.1635 88.4456 55.7802 88.8342 54.4669L89.044 54.5252C89.2072 55.7453 89.6967 56.6933 90.5127 57.3694C91.3287 58.0455 92.3972 58.3835 93.7182 58.3835C94.7596 58.3835 95.5872 58.1426 96.2011 57.6608C96.815 57.179 97.1219 56.5301 97.1219 55.7142C97.1219 54.7739 96.6945 53.9968 95.8397 53.3829C95.2258 52.9477 93.9669 52.5436 92.063 52.1706C90.5943 51.8831 89.5297 51.4052 88.8691 50.7369C88.2086 50.0686 87.8783 49.1399 87.8783 47.951C87.8783 46.7231 88.3174 45.7284 89.1955 44.9669C90.0814 44.1976 91.2315 43.8129 92.6458 43.8129C93.555 43.8129 94.6158 43.9761 95.8281 44.3025C96.3954 44.4579 96.815 44.5356 97.087 44.5356C97.4678 44.5356 97.8835 44.4035 98.3342 44.1393L98.4624 44.1976ZM99.1851 44.6871L99.0802 44.862C98.7616 45.3982 98.4896 45.9111 98.2643 46.4006C97.7203 47.543 97.4134 48.1802 97.3434 48.3123L97.2851 48.3939L97.0054 48.2773L97.052 48.1724C97.2774 47.6595 97.6037 46.9912 98.0311 46.1675L98.8238 44.6288L98.8821 44.5356L99.1851 44.6871ZM95.7814 47.0068C94.9266 46.0976 94.0097 45.643 93.0305 45.643C92.4399 45.643 91.9503 45.8139 91.5618 46.1559C91.1732 46.4978 90.979 46.933 90.979 47.4614C90.979 48.0364 91.3714 48.627 92.1563 49.2332L92.2495 49.2915L92.1912 49.3847C91.1655 48.9262 90.6526 48.2618 90.6526 47.3914C90.6526 46.7853 90.8702 46.2918 91.3053 45.9111C91.7405 45.5303 92.3078 45.3399 93.0072 45.3399C93.6755 45.3399 94.2583 45.4837 94.7557 45.7712C95.2608 46.0509 95.6299 46.4473 95.863 46.9602L95.7814 47.0068ZM98.4624 51.6344C99.5193 52.4348 100.048 53.5305 100.048 54.9215C100.048 56.4058 99.4727 57.6647 98.3226 58.6983C97.1725 59.724 95.7737 60.2369 94.1262 60.2369C93.287 60.2369 92.5293 60.1514 91.8532 59.9805L89.9882 59.5259C89.553 59.4171 89.0867 59.3627 88.5894 59.3627C88.1464 59.3627 87.7385 59.452 87.3654 59.6308L87.2256 59.2927C87.6297 59.1062 88.0415 59.013 88.4612 59.013C88.9274 59.013 89.4597 59.0829 90.0581 59.2228L91.8532 59.6541C92.5681 59.825 93.3219 59.9105 94.1146 59.9105C95.6688 59.9105 96.9898 59.4171 98.0778 58.4302C99.1735 57.4355 99.7213 56.2348 99.7213 54.8283C99.7213 53.6393 99.3017 52.598 98.4624 51.7043V51.6344ZM90.163 54.9915C90.4505 56.3903 91.2199 57.3811 92.471 57.9639V58.0571C91.0256 57.6375 90.1513 56.6351 89.8483 55.0498L90.163 54.9915ZM88.7059 51.2148L89.1023 51.4362C89.3587 51.8947 90.1086 52.2755 91.352 52.5786L93.2287 53.0448C94.5031 53.3635 95.3502 53.6393 95.7698 53.8725C96.1972 54.0978 96.5003 54.4436 96.679 54.9099L96.5974 54.9565C96.2477 54.5524 95.8669 54.2571 95.4551 54.0706C95.051 53.8841 94.27 53.6549 93.1121 53.3829C91.4336 52.9943 90.3068 52.6602 89.7317 52.3804C89.1567 52.0929 88.8147 51.7043 88.7059 51.2148ZM109.793 46.6687L109.594 46.5522C108.848 46.1403 108.165 45.9344 107.543 45.9344C105.499 45.9344 104.477 47.9432 104.477 51.9608C104.477 54.8982 105.111 56.8449 106.377 57.8007L106.272 57.9173C105.495 57.3655 104.94 56.6428 104.605 55.7492C104.279 54.8477 104.116 53.6316 104.116 52.1007C104.116 47.7878 105.25 45.6313 107.52 45.6313C108.553 45.6313 109.311 45.9771 109.793 46.6687ZM107.298 43.9178C109.186 43.9178 110.694 44.6327 111.821 46.0626C112.955 47.4925 113.523 49.4041 113.523 51.7976C113.523 54.059 112.963 55.8618 111.844 57.2062C110.733 58.5506 109.237 59.2228 107.356 59.2228C105.872 59.2228 104.551 58.7488 103.393 57.8007C101.691 56.4019 100.84 54.3309 100.84 51.5878C100.84 49.2409 101.423 47.3759 102.589 45.9927C103.754 44.6094 105.324 43.9178 107.298 43.9178ZM107.298 44.9203C104.671 44.9203 103.358 47.2283 103.358 51.8442C103.358 56.1105 104.652 58.2436 107.24 58.2436C108.444 58.2436 109.361 57.6803 109.991 56.5535C110.62 55.4189 110.935 53.7637 110.935 51.5878C110.935 49.1244 110.632 47.407 110.026 46.4356C109.388 45.4254 108.479 44.9203 107.298 44.9203ZM111.016 44.5123C112.128 45.0485 113.006 45.9655 113.651 47.2632C114.296 48.561 114.618 50.0608 114.618 51.7626C114.618 54.2649 113.981 56.2854 112.707 57.824C111.44 59.3627 109.773 60.132 107.706 60.132C106.385 60.132 105.149 59.6852 103.999 58.7915V58.7332C104.963 59.4404 106.171 59.794 107.624 59.794C109.575 59.794 111.176 59.0596 112.427 57.5909C113.678 56.1222 114.304 54.2455 114.304 51.9608C114.304 50.2589 114.016 48.7708 113.441 47.4963C112.874 46.2219 112.066 45.27 111.016 44.6405V44.5123ZM129.037 44.0693L126.951 45.7362V53.2663C126.951 54.6496 126.904 55.6442 126.811 56.2504C126.726 56.8565 126.551 57.3539 126.287 57.7424C125.618 58.7371 124.32 59.2345 122.393 59.2345C120.357 59.2345 118.935 58.7371 118.127 57.7424C117.482 56.9575 117.159 55.4539 117.159 53.2314V45.4914L115.574 44.0693H121.076L119.491 45.6197V53.243L119.514 55.0381C119.514 56.196 119.755 57.0197 120.237 57.5093C120.719 57.9911 121.531 58.232 122.673 58.232C123.932 58.232 124.798 57.8629 125.272 57.1246C125.653 56.5263 125.844 55.244 125.844 53.278L125.89 45.7362L124.072 44.0693H129.037ZM129.434 44.862L127.848 46.1792V53.4179C127.848 55.788 127.662 57.3344 127.289 58.0571C126.527 59.5181 125.039 60.2486 122.825 60.2486C120.913 60.2486 119.475 59.7707 118.512 58.8148L118.605 58.8614L119.013 59.0946C119.969 59.6541 121.197 59.9338 122.696 59.9338C124.841 59.9338 126.263 59.2578 126.963 57.9056C127.336 57.1751 127.522 55.7064 127.522 53.4995V46.0393L129.259 44.6172L129.434 44.862ZM121.566 44.6988L120.423 45.8528V54.5136L120.412 55.3179L120.773 56.7982C120.952 57.0935 121.29 57.451 121.787 57.8706L121.81 57.9755C121.158 57.7113 120.707 57.3267 120.458 56.8216C120.21 56.3164 120.085 55.5355 120.085 54.4786V45.7362L121.402 44.454L121.566 44.6988ZM130.156 44.0693H135.728L134.085 45.6663V58.1271H134.178L134.598 58.1621H134.703V45.7828L135.961 44.5123L136.125 44.7687L134.994 45.9227V58.1621C135.344 58.1931 135.678 58.2087 135.996 58.2087C137.232 58.2087 138.165 57.9367 138.794 57.3927C139.431 56.841 139.859 55.9357 140.076 54.6768C140.807 56.7982 141.557 58.2475 142.326 59.0246H130.156L131.765 57.7074V45.5497L130.156 44.0693ZM143.468 58.9314L142.944 59.9805H130.774L130.483 59.6657H142.815L143.153 58.9314C142.299 57.8823 141.615 56.7128 141.102 55.4228L141.055 55.2946L141.428 55.4344L141.51 55.6326C142.031 56.7827 142.652 57.8434 143.375 58.8148L143.468 58.9314ZM158.936 44.0693L157.339 45.6896V57.6608L158.773 59.0246H153.411L155.031 57.6608V49.816L151.336 59.9805H150.217L150.124 59.6657H151.138L155.031 48.8252V47.0417L150.695 59.013H149.879L146.685 49.6062V55.7725C146.685 56.5962 146.74 57.179 146.849 57.5209C146.957 57.8629 147.214 58.2398 147.618 58.6516L148.667 59.9805H142.571L142.361 59.6657H148.084L147.653 59.0246H142.454L142.699 58.8964C143.561 58.4224 144.129 57.9445 144.401 57.4627C144.68 56.9731 144.82 56.2038 144.82 55.1547V45.5147L143.282 44.0693H149.308L147.618 45.5963L150.917 55.3528L151.336 54.3387L148.352 45.6896L149.879 44.5589L150.124 44.7571L148.667 45.7828L151.441 53.9074L154.449 45.5963L153.027 44.0693H158.936ZM145.741 46.8319V55.2013C145.741 56.4835 145.862 57.3655 146.103 57.8473C146.351 58.3291 146.86 58.6788 147.63 58.8964L147.525 58.7216C146.763 58.1931 146.382 57.4316 146.382 56.4369V55.5743V48.6853L145.741 46.8319ZM159.589 44.9785L158.272 45.9227V57.6725L160.3 59.9805H154.111L153.947 59.6657H159.589L157.969 57.8357V45.7246L159.344 44.7804L159.589 44.9785ZM171.49 44.0693L170.278 45.4448L172.19 50.527L172.656 50.2706L170.931 45.6779L172.167 44.2558L172.47 44.3841L171.292 45.7479L172.924 50.0958C173.017 50.0258 173.072 49.9831 173.087 49.9675L173.472 49.6411C173.705 49.4546 173.853 49.3225 173.915 49.2448C174.117 50.1307 174.428 50.9234 174.848 51.6228C174.622 51.6072 174.459 51.5994 174.358 51.5994C173.62 51.5994 173.08 51.716 172.738 51.9491L174.848 57.6725L176.596 59.0246H170.709L172.318 57.6725L171.024 54.2688C170.169 55.1314 169.513 55.9512 169.054 56.7283L168.786 56.6584C169.245 55.8968 169.928 55.0459 170.838 54.1056L170.931 53.989L170.709 53.4761C169.785 54.2455 169.019 55.1391 168.413 56.1571L168.203 55.8191C167.799 55.1741 167.282 54.4397 166.653 53.616L166.536 53.4761C165.938 54.805 165.639 55.8851 165.639 56.7166C165.639 57.2062 165.72 57.622 165.884 57.9639C166.055 58.298 166.459 58.8614 167.096 59.6541C167.15 59.724 167.236 59.8328 167.352 59.9805H161.058L160.825 59.6657H166.758L166.56 59.421C166.047 58.7993 165.709 58.3175 165.546 57.9755C165.39 57.6259 165.313 57.2179 165.313 56.7516C165.313 55.959 165.635 54.7778 166.28 53.208L165.767 52.6718C165.666 52.9205 165.538 53.2857 165.382 53.7676L164.998 54.9565C164.788 55.5937 164.683 56.1222 164.683 56.5418C164.683 56.977 164.757 57.3383 164.905 57.6259C165.052 57.9134 165.363 58.3058 165.837 58.8032C165.884 58.8498 165.954 58.9236 166.047 59.0246H160.219C161.33 58.4496 162.208 57.6764 162.853 56.705C163.506 55.7336 164.151 54.2338 164.788 52.2056L164.835 52.0424C164.423 51.6927 163.828 51.479 163.051 51.4013C163.479 50.7641 163.809 50.0996 164.042 49.408C164.151 49.509 164.217 49.5712 164.24 49.5945L164.765 50.0841C164.943 50.2551 165.157 50.4299 165.406 50.6086L165.616 50.0958L165.476 49.9792C165.087 49.6373 164.761 49.3614 164.497 49.1516L164.392 49.07L164.578 48.8135C164.99 49.0855 165.386 49.4002 165.767 49.7577L167.352 45.3982L166.117 44.0693H171.49ZM168.611 47.8111L167.329 51.1915C167.399 51.2692 167.438 51.3158 167.446 51.3313L167.924 51.8675C168.18 52.1473 168.506 52.5825 168.903 53.1731L169.019 53.3479C169.353 52.9283 169.75 52.5125 170.208 52.1007L168.611 47.8111ZM168.087 46.4589L166.233 51.3547C166.824 51.9608 167.333 52.5592 167.76 53.1498L168.297 53.8958C168.304 53.9035 168.343 53.9541 168.413 54.0473C168.483 53.9774 168.522 53.9346 168.53 53.9191L168.693 53.7209C168.716 53.6898 168.759 53.6393 168.821 53.5694C168.277 52.7301 167.644 51.9724 166.921 51.2964L168.413 47.3565L168.087 46.4589ZM174.941 49.8043C175.112 50.5037 175.539 51.4634 176.223 52.6835C176.052 52.6602 175.955 52.6485 175.932 52.6485L174.987 52.5669C174.56 52.5281 174.249 52.5086 174.055 52.5086C174.024 52.5086 173.946 52.5125 173.822 52.5203L175.768 57.6841L178.368 59.9805H171.619L171.397 59.6657H177.587L175.489 57.8124L173.414 52.3221C173.678 52.2522 173.981 52.2172 174.323 52.2172C174.743 52.2172 175.209 52.2522 175.722 52.3221L175.582 52.0657C175.085 51.1487 174.75 50.3211 174.579 49.5829L174.941 49.8043ZM191.761 44.0693C191.691 44.2014 191.645 44.2908 191.621 44.3374L190.829 45.7362C190.557 46.2336 190.304 46.8552 190.071 47.6013L190.048 47.6595L189.931 47.5779L189.896 47.4264C189.671 46.5405 189.348 45.9266 188.929 45.5847C188.517 45.2428 187.883 45.0718 187.029 45.0718C186.679 45.0718 186.329 45.0873 185.979 45.1184H185.84V57.7541L187.215 59.0246H181.888L183.52 57.6608V46.0626L182.692 46.0509C181.892 46.0509 181.321 46.2102 180.979 46.5289C180.645 46.8397 180.447 47.3914 180.384 48.1841H180.081C180.167 47.2749 180.4 46.6415 180.781 46.2841C181.169 45.9266 181.806 45.7479 182.692 45.7479L183.392 45.7595H183.52V45.1884C183.124 45.1417 182.747 45.1184 182.389 45.1184C181.387 45.1184 180.664 45.3244 180.221 45.7362C179.778 46.1403 179.533 46.828 179.487 47.7994H179.347C179.013 46.7192 178.496 45.5147 177.797 44.1859L177.727 44.0693H191.761ZM192.495 44.8037C191.959 45.4875 191.396 46.6221 190.805 48.2074L190.759 48.324L190.502 48.1025L190.537 47.9976C191.112 46.389 191.668 45.27 192.204 44.6405L192.262 44.5706L192.495 44.8037ZM189.383 46.6221C188.785 46.2336 188.085 46.0393 187.285 46.0393C187.106 46.0393 186.92 46.0509 186.726 46.0743L186.772 57.789L188.626 59.9805H182.669L182.401 59.6657H187.984L186.422 57.8823V45.7362L187.052 45.7246C187.806 45.7246 188.338 45.7867 188.649 45.9111C188.967 46.0276 189.212 46.2646 189.383 46.6221ZM205.224 44.0693L205.038 44.2908C204.245 45.2622 203.616 46.3773 203.15 47.6362C203.072 47.4575 203.014 47.3254 202.975 47.2399C202.547 46.3074 202.089 45.7051 201.599 45.4331C201.11 45.1612 200.232 45.0252 198.965 45.0252C198.382 45.0252 197.683 45.0446 196.867 45.0835V50.4454H197.613V45.7012C198.203 45.6469 198.767 45.6197 199.303 45.6197C200.29 45.6197 201.016 45.7246 201.483 45.9344C201.949 46.1442 202.365 46.5522 202.73 47.1583C202.621 47.0806 202.543 47.0223 202.497 46.9835C201.867 46.4861 201.413 46.1908 201.133 46.0976C200.853 46.0043 200.301 45.9577 199.478 45.9577C199.229 45.9577 198.786 45.9732 198.149 46.0043L197.904 46.016V50.4454H200.049L201.553 48.3822V53.4062L200.049 51.4596H196.867V57.9989H197.613V52.0074H200.142L200.445 52.3105H197.904V57.9989C199.489 57.9989 200.616 57.8862 201.284 57.6608C201.953 57.4355 202.477 56.9925 202.858 56.332L203.476 55.2712C203.499 55.2246 203.546 55.1391 203.616 55.0148C203.818 55.8696 204.067 56.5535 204.362 57.0663C204.665 57.5792 205.162 58.1776 205.854 58.8614H192.787L194.559 57.5093V52.3105C193.906 52.3882 193.315 52.5902 192.787 52.9166L192.624 52.6718C193.098 52.3299 193.743 52.1084 194.559 52.0074V51.4596C194.427 51.444 194.333 51.4362 194.279 51.4362C193.486 51.4362 192.764 51.7277 192.111 52.3105C192.468 51.0671 193.284 50.4454 194.559 50.4454V45.4681L192.787 44.0693H205.224ZM205.784 44.8853L205.702 44.9902C204.754 46.2646 204.121 47.3332 203.802 48.1957L203.604 47.951C204.125 46.7464 204.797 45.643 205.621 44.6405L205.784 44.8853ZM202.357 48.7669V53.9191L202.065 53.7676V48.6154L202.357 48.7669ZM207.183 58.9314L206.577 59.9805H193.848L193.661 59.6657H206.425L206.821 58.9314C205.702 57.8978 204.914 56.7944 204.455 55.6209L204.828 55.7608C205.255 56.7555 205.978 57.7502 206.996 58.7449L207.183 58.9314Z" fill="#ED1B24"/>
<path d="M227.791 44.0693L225.227 45.7479L221.497 50.4921L225.763 57.4976L227.791 59.0246H221.777L223.257 57.5909L220.599 53.2547L217.312 57.4976L219.224 59.9805H212.848L212.673 59.6657H218.606L216.939 57.4976L220.436 52.9633L220.11 52.4504L216.298 57.2762L217.72 59.0246H212.37L215.097 57.2762L219.609 51.5645L215.972 45.6313L213.757 44.0693H219.912L218.385 45.3982L220.984 49.6411L221.404 49.1049L219.224 45.6313L220.518 44.3957L220.728 44.5939L219.609 45.6313L221.59 48.8718L224.12 45.6313L222.663 44.0693H227.791ZM228.211 44.9552L225.938 46.2957L222.639 50.5737L226.661 57.2179L229.505 59.9805H222.266L222.056 59.6657H228.759L226.393 57.3694L222.266 50.5737L225.728 46.0976L228.036 44.7221L228.211 44.9552Z" fill="#0059A9"/>
</svg>
