<svg width="51" height="51" viewBox="0 0 51 51" fill="none" xmlns="http://www.w3.org/2000/svg">
<g clip-path="url(#clip0_757_2692)">
<path d="M50.2914 20.2668L41.4046 5.12406C40.9972 4.42982 40.1059 4.19438 39.4088 4.59691L34.0829 7.67182L29.2857 5.90727C29.1101 5.84298 28.9314 5.78783 28.7501 5.74203C27.3994 5.39867 25.9677 5.59135 24.746 6.29672L16.816 10.8751C15.0645 11.8864 14.4644 14.1261 15.4756 15.8777C16.4868 17.6292 18.7266 18.2293 20.4781 17.2181L29.18 12.194C29.6254 11.9369 30.1306 11.8015 30.6448 11.8015C31.1591 11.8015 31.6643 11.9369 32.1097 12.194C32.1097 12.194 49.6416 22.3195 49.6979 22.3542L49.9591 22.1392C50.2282 21.9177 50.4095 21.6075 50.4704 21.2643C50.5313 20.9211 50.4678 20.5674 50.2914 20.2668Z" fill="#0059A9"/>
<path d="M48.0706 24.7876L30.6518 14.731L21.95 19.755C20.9344 20.3415 19.807 20.641 18.6648 20.641C18.0851 20.6405 17.5079 20.5641 16.948 20.4136C15.2472 19.9579 13.8257 18.8671 12.9454 17.3422C12.065 15.8175 11.8312 14.0411 12.287 12.3403C12.6632 10.9362 13.4731 9.72339 14.6019 8.84732L11.0103 6.77369C10.2942 6.36021 9.37791 6.62115 8.98699 7.34986L0.674197 22.8481C0.300271 23.5453 0.547439 24.4135 1.23269 24.809L1.99412 25.2486L3.33055 22.9337C4.43924 21.0133 6.50633 19.8204 8.72508 19.8204C9.81691 19.8212 10.8893 20.109 11.8348 20.655C12.3711 20.9638 12.8584 21.3507 13.2808 21.8028C13.9631 21.5531 14.6838 21.4252 15.4103 21.4248C16.5022 21.4256 17.5746 21.7134 18.5201 22.2594C19.9601 23.0908 20.9903 24.4334 21.4207 26.0396C21.4673 26.2152 21.5063 26.3928 21.5377 26.5717C22.1394 26.7106 22.7172 26.9382 23.2521 27.2468C24.6923 28.0782 25.7224 29.4208 26.1528 31.027C26.1994 31.2026 26.2385 31.3802 26.2698 31.5591C26.8715 31.698 27.4493 31.9255 27.9842 32.2341C30.957 33.9506 31.9793 37.7657 30.2631 40.7384L28.4382 43.8992L32.3498 46.1576C33.9262 47.0677 35.9419 46.5276 36.852 44.9512C37.7622 43.3748 37.2221 41.359 35.6457 40.4489L38.1829 41.9137C39.7593 42.8239 41.775 42.2837 42.6851 40.7074C43.5953 39.131 43.0552 37.1152 41.4788 36.205L43.1703 37.1816C44.7467 38.0917 46.7625 37.5516 47.6725 35.9751C48.5827 34.3988 48.0426 32.383 46.4661 31.4729L44.7747 30.4963C46.3511 31.4065 48.3668 30.8664 49.2769 29.2899C50.1871 27.7135 49.647 25.6978 48.0706 24.7876Z" fill="#0059A9"/>
<path d="M26.5165 34.7718C24.9402 33.8617 22.9245 34.4018 22.0143 35.9782L22.9909 34.2868C23.901 32.7104 23.3609 30.6947 21.7845 29.7845C20.2081 28.8744 18.1924 29.4145 17.2823 30.9909L18.2588 29.2994C19.169 27.723 18.6288 25.7073 17.0525 24.7971C15.4761 23.8869 13.4604 24.4271 12.5502 26.0035L11.5737 27.6949C12.4837 26.1185 11.9437 24.1028 10.3672 23.1926C8.79086 22.2825 6.77514 22.8226 5.86498 24.399L2.32494 30.5305C1.41478 32.1069 1.95492 34.1227 3.53129 35.0328C5.10765 35.9429 7.12348 35.4028 8.03353 33.8263C7.12338 35.4027 7.66351 37.4185 9.23988 38.3286C10.8162 39.2387 12.8321 38.6986 13.7421 37.1221C12.832 38.6985 13.3721 40.7143 14.9486 41.6244C16.5249 42.5345 18.5407 41.9944 19.4508 40.4179C18.5407 41.9943 19.0808 44.0101 20.6572 44.9202C22.2335 45.8303 24.2494 45.2902 25.1594 43.7137L27.7229 39.2737C28.6331 37.6977 28.093 35.6819 26.5165 34.7718Z" fill="#0059A9"/>
</g>
<defs>
<clipPath id="clip0_757_2692">
<rect width="50" height="50" fill="white" transform="translate(0.5 0.5)"/>
</clipPath>
</defs>
</svg>
