<svg width="33" height="33" viewBox="0 0 33 33" fill="none" xmlns="http://www.w3.org/2000/svg">
<path d="M16.2223 0.229203C16.2892 -0.0667106 16.7108 -0.0667101 16.7777 0.229203L18.983 9.99218C19.0221 10.1653 19.2083 10.2608 19.3716 10.1916L24.6865 7.94032C24.9221 7.84056 25.1594 8.07792 25.0597 8.31345L22.8084 13.6284C22.7392 13.7917 22.8347 13.9779 23.0078 14.017L32.7708 16.2223C33.0667 16.2892 33.0667 16.7108 32.7708 16.7777L23.0078 18.983C22.8347 19.0221 22.7392 19.2083 22.8084 19.3716L25.0597 24.6865C25.1594 24.9221 24.9221 25.1594 24.6865 25.0597L19.3716 22.8084C19.2083 22.7392 19.0221 22.8347 18.983 23.0078L16.7777 32.7708C16.7108 33.0667 16.2892 33.0667 16.2223 32.7708L14.017 23.0078C13.9779 22.8347 13.7917 22.7392 13.6284 22.8084L8.31345 25.0597C8.07792 25.1594 7.84056 24.9221 7.94032 24.6865L10.1916 19.3716C10.2608 19.2083 10.1653 19.0221 9.99218 18.983L0.229203 16.7777C-0.0667107 16.7108 -0.0667101 16.2892 0.229203 16.2223L9.99218 14.017C10.1653 13.9779 10.2608 13.7917 10.1916 13.6284L7.94032 8.31345C7.84056 8.07792 8.07792 7.84056 8.31345 7.94032L13.6284 10.1916C13.7917 10.2608 13.9779 10.1653 14.017 9.99218L16.2223 0.229203Z" fill="#ED1B24"/>
</svg>
