<svg width="1438" height="1019" viewBox="0 0 1438 1019" fill="none" xmlns="http://www.w3.org/2000/svg">
<path d="M1317.91 164.416C1317.91 165.268 1316.95 165.959 1315.77 165.959C1314.58 165.959 1313.62 165.268 1313.62 164.416C1313.62 163.564 1314.58 162.873 1315.77 162.873C1316.95 162.873 1317.91 163.564 1317.91 164.416Z" fill="white"/>
<path d="M1346 117.278C1346 118.131 1345.04 118.821 1343.85 118.821C1342.67 118.821 1341.71 118.131 1341.71 117.278C1341.71 116.426 1342.67 115.735 1343.85 115.735C1345.04 115.735 1346 116.424 1346 117.278Z" fill="white"/>
<path d="M1308.27 78.8819C1308.27 79.7341 1307.31 80.4249 1306.13 80.4249C1304.94 80.4249 1303.98 79.7341 1303.98 78.8819C1303.98 78.0297 1304.94 77.3389 1306.13 77.3389C1307.31 77.3367 1308.27 78.0275 1308.27 78.8819Z" fill="white"/>
<path d="M1307.26 142.717C1307.26 143.569 1306.3 144.26 1305.12 144.26C1303.94 144.26 1302.98 143.569 1302.98 142.717C1302.98 141.865 1303.94 141.174 1305.12 141.174C1306.3 141.172 1307.26 141.865 1307.26 142.717Z" fill="white"/>
<path d="M1391.91 66.1378C1391.91 66.99 1390.95 67.6808 1389.77 67.6808C1388.58 67.6808 1387.62 66.99 1387.62 66.1378C1387.62 65.2855 1388.58 64.5947 1389.77 64.5947C1390.95 64.5926 1391.91 65.2834 1391.91 66.1378Z" fill="white"/>
<path d="M1249.98 89.1837C1249.98 90.0359 1249.02 90.7267 1247.84 90.7267C1246.65 90.7267 1245.7 90.0359 1245.7 89.1837C1245.7 88.3314 1246.65 87.6406 1247.84 87.6406C1249.02 87.6406 1249.98 88.3314 1249.98 89.1837Z" fill="white"/>
<path d="M1291.86 95.8253C1291.86 96.6775 1290.9 97.3683 1289.71 97.3683C1288.53 97.3683 1287.57 96.6775 1287.57 95.8253C1287.57 94.973 1288.53 94.2822 1289.71 94.2822C1290.9 94.2822 1291.86 94.973 1291.86 95.8253Z" fill="white"/>
<path d="M1283.24 44.3008C1283.24 45.1531 1282.28 45.8439 1281.1 45.8439C1279.91 45.8439 1278.95 45.1531 1278.95 44.3008C1278.95 43.4486 1279.91 42.7578 1281.1 42.7578C1282.28 42.7578 1283.24 43.4486 1283.24 44.3008Z" fill="white"/>
<path d="M1138.87 99.253C1138.87 100.105 1137.91 100.796 1136.73 100.796C1135.55 100.796 1134.59 100.105 1134.59 99.253C1134.59 98.4008 1135.55 97.71 1136.73 97.71C1137.91 97.71 1138.87 98.4008 1138.87 99.253Z" fill="white"/>
<path d="M971.747 30.9249C971.747 31.7771 970.788 32.4679 969.604 32.4679C968.42 32.4679 967.461 31.7771 967.461 30.9249C967.461 30.0726 968.42 29.3818 969.604 29.3818C970.785 29.3818 971.747 30.0726 971.747 30.9249Z" fill="white"/>
<path d="M954.216 18.2217C954.216 19.074 953.256 19.7648 952.073 19.7648C950.889 19.7648 949.93 19.074 949.93 18.2217C949.93 17.3695 950.889 16.6787 952.073 16.6787C953.256 16.6766 954.216 17.3674 954.216 18.2217Z" fill="white"/>
<path d="M908.349 15.2608C908.349 16.113 907.389 16.8038 906.206 16.8038C905.022 16.8038 904.062 16.113 904.062 15.2608C904.062 14.4086 905.022 13.7178 906.206 13.7178C907.389 13.7178 908.349 14.4086 908.349 15.2608Z" fill="white"/>
<path d="M876.716 16.7149C876.716 17.5671 875.756 18.2579 874.573 18.2579C873.389 18.2579 872.43 17.5671 872.43 16.7149C872.43 15.8627 873.389 15.1719 874.573 15.1719C875.756 15.1697 876.716 15.8605 876.716 16.7149Z" fill="white"/>
<path d="M839.653 14.4014C839.653 15.2537 838.694 15.9445 837.51 15.9445C836.327 15.9445 835.367 15.2537 835.367 14.4014C835.367 13.5492 836.327 12.8584 837.51 12.8584C838.694 12.8584 839.653 13.5492 839.653 14.4014Z" fill="white"/>
<path d="M810.349 8.43463C810.349 9.28685 809.389 9.97767 808.206 9.97767C807.022 9.97767 806.062 9.28685 806.062 8.43463C806.062 7.58241 807.022 6.8916 808.206 6.8916C809.389 6.8916 810.349 7.58241 810.349 8.43463Z" fill="white"/>
<path d="M757.966 6.52741C757.966 7.37963 757.006 8.07044 755.823 8.07044C754.639 8.07044 753.68 7.37963 753.68 6.52741C753.68 5.67519 754.639 4.98438 755.823 4.98438C757.006 4.98438 757.966 5.67519 757.966 6.52741Z" fill="white"/>
<path d="M647.981 9.09674C647.981 9.94896 647.022 10.6398 645.838 10.6398C644.655 10.6398 643.695 9.94896 643.695 9.09674C643.695 8.24452 644.655 7.55371 645.838 7.55371C647.022 7.55371 647.981 8.24452 647.981 9.09674Z" fill="white"/>
<path d="M542.182 16.5363C543.366 16.5363 544.325 15.8454 544.325 14.9932C544.325 14.141 543.366 13.4502 542.182 13.4502C540.999 13.4502 540.039 14.141 540.039 14.9932C540.039 15.8454 540.999 16.5363 542.182 16.5363Z" fill="white"/>
<path d="M432.239 18.6368C432.239 19.489 431.28 20.1798 430.096 20.1798C428.913 20.1798 427.953 19.489 427.953 18.6368C427.953 17.7846 428.913 17.0938 430.096 17.0938C431.28 17.0938 432.239 17.7846 432.239 18.6368Z" fill="white"/>
<path d="M359.552 33.8956C359.552 34.7478 358.592 35.4386 357.409 35.4386C356.225 35.4386 355.266 34.7478 355.266 33.8956C355.266 33.0434 356.225 32.3525 357.409 32.3525C358.592 32.3525 359.552 33.0434 359.552 33.8956Z" fill="white"/>
<path d="M269.651 66.7892C270.834 66.7892 271.794 66.0984 271.794 65.2462C271.794 64.394 270.834 63.7031 269.651 63.7031C268.467 63.7031 267.508 64.394 267.508 65.2462C267.508 66.0984 268.467 66.7892 269.651 66.7892Z" fill="white"/>
<path d="M204.872 102.66C204.872 103.512 203.913 104.203 202.729 104.203C201.545 104.203 200.586 103.512 200.586 102.66C200.586 101.808 201.545 101.117 202.729 101.117C203.913 101.117 204.872 101.808 204.872 102.66Z" fill="white"/>
<path d="M134.567 149.395C134.567 150.247 133.608 150.938 132.424 150.938C131.241 150.938 130.281 150.247 130.281 149.395C130.281 148.542 131.241 147.852 132.424 147.852C133.608 147.852 134.567 148.542 134.567 149.395Z" fill="white"/>
<path d="M91.7549 185.033C91.7549 185.885 90.7955 186.576 89.6118 186.576C88.4282 186.576 87.4688 185.885 87.4688 185.033C87.4688 184.181 88.4282 183.49 89.6118 183.49C90.7955 183.49 91.7549 184.181 91.7549 185.033Z" fill="white"/>
<path d="M58.7471 225.509C58.7471 226.361 57.7876 227.052 56.604 227.052C55.4204 227.052 54.4609 226.361 54.4609 225.509C54.4609 224.657 55.4204 223.966 56.604 223.966C57.7876 223.966 58.7471 224.657 58.7471 225.509Z" fill="white"/>
<path d="M25.7002 277.585C25.7002 278.437 24.7408 279.128 23.5571 279.128C22.3735 279.128 21.4141 278.437 21.4141 277.585C21.4141 276.733 22.3735 276.042 23.5571 276.042C24.7408 276.042 25.7002 276.733 25.7002 277.585Z" fill="white"/>
<path d="M12.458 317.857C12.458 318.709 11.4986 319.4 10.315 319.4C9.13133 319.4 8.17188 318.709 8.17188 317.857C8.17188 317.004 9.13133 316.313 10.315 316.313C11.4986 316.311 12.458 317.002 12.458 317.857Z" fill="white"/>
<path d="M34.9971 314.964C34.9971 315.816 34.0377 316.507 32.854 316.507C31.6704 316.507 30.7109 315.816 30.7109 314.964C30.7109 314.112 31.6704 313.421 32.854 313.421C34.0377 313.421 34.9971 314.112 34.9971 314.964Z" fill="white"/>
<path d="M105.005 252.15C105.005 253.002 104.045 253.693 102.862 253.693C101.678 253.693 100.719 253.002 100.719 252.15C100.719 251.297 101.678 250.606 102.862 250.606C104.045 250.606 105.005 251.297 105.005 252.15Z" fill="white"/>
<path d="M161.435 140.653C161.435 141.506 160.475 142.196 159.292 142.196C158.108 142.196 157.148 141.506 157.148 140.653C157.148 139.801 158.108 139.11 159.292 139.11C160.472 139.11 161.435 139.801 161.435 140.653Z" fill="white"/>
<path d="M133.349 91.0079C133.349 91.8601 132.389 92.5509 131.206 92.5509C130.022 92.5509 129.062 91.8601 129.062 91.0079C129.062 90.1557 130.022 89.4648 131.206 89.4648C132.389 89.4648 133.349 90.1557 133.349 91.0079Z" fill="white"/>
<path d="M89.3018 49.8721C89.3018 50.7244 88.3423 51.4152 87.1587 51.4152C85.9751 51.4152 85.0156 50.7244 85.0156 49.8721C85.0156 49.0199 85.9751 48.3291 87.1587 48.3291C88.3423 48.327 89.3018 49.0178 89.3018 49.8721Z" fill="white"/>
<path d="M72.0284 31.588C72.0284 32.4402 71.0689 33.131 69.8853 33.131C68.7016 33.131 67.7422 32.4402 67.7422 31.588C67.7422 30.7357 68.7016 30.0449 69.8853 30.0449C71.0659 30.0449 72.0284 30.7357 72.0284 31.588Z" fill="white"/>
<path d="M45.7393 17.9356C45.7393 18.7878 44.7798 19.4786 43.5962 19.4786C42.4126 19.4786 41.4531 18.7878 41.4531 17.9356C41.4531 17.0834 42.4126 16.3926 43.5962 16.3926C44.7798 16.3926 45.7393 17.0834 45.7393 17.9356Z" fill="white"/>
<path d="M4.28617 65.8506C4.28617 66.7029 3.32671 67.3937 2.14308 67.3937C0.959457 67.3937 0 66.7029 0 65.8506C0 64.9984 0.959457 64.3076 2.14308 64.3076C3.32671 64.3076 4.28617 64.9963 4.28617 65.8506Z" fill="white"/>
<path d="M15.9112 147.494C15.9112 148.346 14.9517 149.037 13.7681 149.037C12.5845 149.037 11.625 148.346 11.625 147.494C11.625 146.642 12.5845 145.951 13.7681 145.951C14.9517 145.951 15.9112 146.642 15.9112 147.494Z" fill="white"/>
<path d="M99.9737 111.959C99.9737 112.811 99.0142 113.502 97.8306 113.502C96.647 113.502 95.6875 112.811 95.6875 111.959C95.6875 111.107 96.647 110.416 97.8306 110.416C99.0142 110.416 99.9737 111.107 99.9737 111.959Z" fill="white"/>
<path d="M161.716 50.3194C161.716 51.1716 160.756 51.8624 159.573 51.8624C158.389 51.8624 157.43 51.1716 157.43 50.3194C157.43 49.4672 158.389 48.7764 159.573 48.7764C160.756 48.7764 161.716 49.4672 161.716 50.3194Z" fill="white"/>
<path d="M185.888 3.09284C185.888 3.94506 184.928 4.63587 183.745 4.63587C182.561 4.63587 181.602 3.94506 181.602 3.09284C181.602 2.24062 182.561 1.5498 183.745 1.5498C184.928 1.5498 185.888 2.24062 185.888 3.09284Z" fill="white"/>
<path d="M256.778 1.54303C256.778 2.39525 255.819 3.08607 254.635 3.08607C253.452 3.08607 252.492 2.39525 252.492 1.54303C252.492 0.690814 253.452 0 254.635 0C255.819 0 256.778 0.690814 256.778 1.54303Z" fill="white"/>
<path d="M292.208 41.3546C292.208 42.2068 291.249 42.8976 290.065 42.8976C288.881 42.8976 287.922 42.2068 287.922 41.3546C287.922 40.5023 288.881 39.8115 290.065 39.8115C291.249 39.8115 292.208 40.5002 292.208 41.3546Z" fill="white"/>
<path d="M294.817 94.3702C294.817 95.2224 293.858 95.9132 292.674 95.9132C291.491 95.9132 290.531 95.2224 290.531 94.3702C290.531 93.518 291.491 92.8272 292.674 92.8272C293.858 92.825 294.817 93.518 294.817 94.3702Z" fill="white"/>
<path d="M327.981 98.6075C327.981 99.4597 327.022 100.151 325.838 100.151C324.655 100.151 323.695 99.4597 323.695 98.6075C323.695 97.7553 324.655 97.0645 325.838 97.0645C327.019 97.0645 327.981 97.7553 327.981 98.6075Z" fill="white"/>
<path d="M432.216 72.5675C432.216 73.4197 431.256 74.1105 430.073 74.1105C428.889 74.1105 427.93 73.4197 427.93 72.5675C427.93 71.7152 428.889 71.0244 430.073 71.0244C431.256 71.0244 432.216 71.7131 432.216 72.5675Z" fill="white"/>
<path d="M503.372 57.4454C503.372 58.2976 502.413 58.9884 501.229 58.9884C500.045 58.9884 499.086 58.2976 499.086 57.4454C499.086 56.5932 500.045 55.9023 501.229 55.9023C502.413 55.9023 503.372 56.5932 503.372 57.4454Z" fill="white"/>
<path d="M617.146 42.7315C617.146 43.5837 616.186 44.2745 615.002 44.2745C613.819 44.2745 612.859 43.5837 612.859 42.7315C612.859 41.8793 613.819 41.1885 615.002 41.1885C616.186 41.1885 617.146 41.8793 617.146 42.7315Z" fill="white"/>
<path d="M738.864 41.9522C738.864 42.8044 737.905 43.4952 736.721 43.4952C735.538 43.4952 734.578 42.8044 734.578 41.9522C734.578 41.1 735.538 40.4092 736.721 40.4092C737.905 40.407 738.864 41.0978 738.864 41.9522Z" fill="white"/>
<path d="M846.888 48.2881C846.888 49.1404 845.928 49.8312 844.745 49.8312C843.561 49.8312 842.602 49.1404 842.602 48.2881C842.602 47.4359 843.561 46.7451 844.745 46.7451C845.928 46.7451 846.888 47.4359 846.888 48.2881Z" fill="white"/>
<path d="M976.521 48.5557C976.521 49.4079 975.561 50.0988 974.377 50.0988C973.194 50.0988 972.234 49.4079 972.234 48.5557C972.234 47.7035 973.194 47.0127 974.377 47.0127C975.561 47.0127 976.521 47.7035 976.521 48.5557Z" fill="white"/>
<path d="M1085.68 41.3565C1085.68 42.2087 1084.72 42.8995 1083.53 42.8995C1082.35 42.8995 1081.39 42.2087 1081.39 41.3565C1081.39 40.5043 1082.35 39.8135 1083.53 39.8135C1084.71 39.8135 1085.68 40.5043 1085.68 41.3565Z" fill="white"/>
<path d="M1170.37 32.3565C1170.37 33.2087 1169.41 33.8995 1168.23 33.8995C1167.05 33.8995 1166.09 33.2087 1166.09 32.3565C1166.09 31.5043 1167.05 30.8135 1168.23 30.8135C1169.41 30.8135 1170.37 31.5043 1170.37 32.3565Z" fill="white"/>
<path d="M1252.92 22.3819C1252.92 23.2341 1251.96 23.9249 1250.78 23.9249C1249.59 23.9249 1248.63 23.2341 1248.63 22.3819C1248.63 21.5297 1249.59 20.8389 1250.78 20.8389C1251.96 20.8367 1252.92 21.5297 1252.92 22.3819Z" fill="white"/>
<path d="M1341.75 20.6055C1341.75 21.4578 1340.79 22.1486 1339.6 22.1486C1338.42 22.1486 1337.46 21.4578 1337.46 20.6055C1337.46 19.7533 1338.42 19.0625 1339.6 19.0625C1340.79 19.0625 1341.75 19.7533 1341.75 20.6055Z" fill="white"/>
<path d="M1389.74 25.4971C1389.74 26.3494 1388.78 27.0402 1387.6 27.0402C1386.41 27.0402 1385.45 26.3494 1385.45 25.4971C1385.45 24.6449 1386.41 23.9541 1387.6 23.9541C1388.78 23.952 1389.74 24.6449 1389.74 25.4971Z" fill="white"/>
<path d="M1423.15 63.8214C1423.15 64.6736 1422.19 65.3644 1421.01 65.3644C1419.83 65.3644 1418.87 64.6736 1418.87 63.8214C1418.87 62.9691 1419.83 62.2783 1421.01 62.2783C1422.19 62.2783 1423.15 62.9691 1423.15 63.8214Z" fill="white"/>
<path d="M1416.25 123.398C1416.25 124.25 1415.29 124.941 1414.1 124.941C1412.92 124.941 1411.96 124.25 1411.96 123.398C1411.96 122.545 1412.92 121.854 1414.1 121.854C1415.29 121.854 1416.25 122.545 1416.25 123.398Z" fill="white"/>
<path d="M1377.71 174.236C1377.71 175.089 1376.75 175.779 1375.56 175.779C1374.38 175.779 1373.42 175.089 1373.42 174.236C1373.42 173.384 1374.38 172.693 1375.56 172.693C1376.75 172.693 1377.71 173.384 1377.71 174.236Z" fill="white"/>
<path d="M1356.04 210.86C1356.04 211.713 1355.08 212.403 1353.9 212.403C1352.72 212.403 1351.76 211.713 1351.76 210.86C1351.76 210.008 1352.72 209.317 1353.9 209.317C1355.08 209.317 1356.04 210.008 1356.04 210.86Z" fill="white"/>
<path d="M1368.89 273.584C1370.07 273.584 1371.03 272.893 1371.03 272.041C1371.03 271.189 1370.07 270.498 1368.89 270.498C1367.7 270.498 1366.74 271.189 1366.74 272.041C1366.74 272.893 1367.7 273.584 1368.89 273.584Z" fill="white"/>
<path d="M1388.83 343.098C1388.83 343.95 1387.87 344.641 1386.69 344.641C1385.51 344.641 1384.55 343.95 1384.55 343.098C1384.55 342.246 1385.51 341.555 1386.69 341.555C1387.87 341.555 1388.83 342.246 1388.83 343.098Z" fill="white"/>
<path d="M1415.47 421.509C1415.47 422.361 1414.51 423.052 1413.32 423.052C1412.14 423.052 1411.18 422.361 1411.18 421.509C1411.18 420.657 1412.14 419.966 1413.32 419.966C1414.51 419.966 1415.47 420.657 1415.47 421.509Z" fill="white"/>
<path d="M1431.61 463.614C1432.8 463.614 1433.75 462.924 1433.75 462.071C1433.75 461.219 1432.8 460.528 1431.61 460.528C1430.43 460.528 1429.47 461.219 1429.47 462.071C1429.47 462.924 1430.43 463.614 1431.61 463.614Z" fill="white"/>
<path d="M1438 503.713C1438 504.565 1437.05 505.256 1435.86 505.256C1434.68 505.256 1433.72 504.565 1433.72 503.713C1433.72 502.861 1434.68 502.17 1435.86 502.17C1437.05 502.168 1438 502.861 1438 503.713Z" fill="white"/>
<path d="M1434.73 544.222C1434.73 545.074 1433.77 545.765 1432.59 545.765C1431.4 545.765 1430.45 545.074 1430.45 544.222C1430.45 543.37 1431.4 542.679 1432.59 542.679C1433.77 542.679 1434.73 543.37 1434.73 544.222Z" fill="white"/>
<path d="M1418.95 582.585C1418.95 583.437 1417.99 584.128 1416.81 584.128C1415.62 584.128 1414.66 583.437 1414.66 582.585C1414.66 581.733 1415.62 581.042 1416.81 581.042C1417.99 581.042 1418.95 581.733 1418.95 582.585Z" fill="white"/>
<path d="M1394.75 637.24C1394.75 638.092 1393.8 638.783 1392.61 638.783C1391.43 638.783 1390.47 638.092 1390.47 637.24C1390.47 636.388 1391.43 635.697 1392.61 635.697C1393.8 635.697 1394.75 636.388 1394.75 637.24Z" fill="white"/>
<path d="M1374.93 680.621C1374.93 681.473 1373.98 682.164 1372.79 682.164C1371.61 682.164 1370.65 681.473 1370.65 680.621C1370.65 679.769 1371.61 679.078 1372.79 679.078C1373.98 679.078 1374.93 679.769 1374.93 680.621Z" fill="white"/>
<path d="M1343.71 722.437C1343.71 723.289 1342.75 723.98 1341.56 723.98C1340.38 723.98 1339.42 723.289 1339.42 722.437C1339.42 721.584 1340.38 720.894 1341.56 720.894C1342.75 720.891 1343.71 721.582 1343.71 722.437Z" fill="white"/>
<path d="M1320.73 754.485C1320.73 755.338 1319.77 756.028 1318.59 756.028C1317.4 756.028 1316.45 755.338 1316.45 754.485C1316.45 753.633 1317.4 752.942 1318.59 752.942C1319.77 752.942 1320.73 753.631 1320.73 754.485Z" fill="white"/>
<path d="M381.174 90.5138C382.358 90.5138 383.317 89.823 383.317 88.9708C383.317 88.1186 382.358 87.4277 381.174 87.4277C379.991 87.4277 379.031 88.1186 379.031 88.9708C379.031 89.823 379.991 90.5138 381.174 90.5138Z" fill="white"/>
<path d="M342.231 143.493C342.231 144.345 341.272 145.036 340.088 145.036C338.905 145.036 337.945 144.345 337.945 143.493C337.945 142.641 338.905 141.95 340.088 141.95C341.272 141.95 342.231 142.641 342.231 143.493Z" fill="white"/>
<path d="M282.708 220.583C282.708 221.435 281.749 222.126 280.565 222.126C279.381 222.126 278.422 221.435 278.422 220.583C278.422 219.731 279.381 219.04 280.565 219.04C281.749 219.04 282.708 219.731 282.708 220.583Z" fill="white"/>
<path d="M243.724 297.564C243.724 298.416 242.764 299.107 241.581 299.107C240.397 299.107 239.438 298.416 239.438 297.564C239.438 296.711 240.397 296.021 241.581 296.021C242.764 296.021 243.724 296.711 243.724 297.564Z" fill="white"/>
<path d="M290.427 352.108C290.427 352.961 289.467 353.651 288.284 353.651C287.1 353.651 286.141 352.961 286.141 352.108C286.141 351.256 287.1 350.565 288.284 350.565C289.464 350.565 290.427 351.256 290.427 352.108Z" fill="white"/>
<path d="M441.544 280.503C441.544 281.355 440.585 282.046 439.401 282.046C438.217 282.046 437.258 281.355 437.258 280.503C437.258 279.651 438.217 278.96 439.401 278.96C440.582 278.958 441.544 279.651 441.544 280.503Z" fill="white"/>
<path d="M557.052 202.404C557.052 203.257 556.092 203.947 554.909 203.947C553.725 203.947 552.766 203.257 552.766 202.404C552.766 201.552 553.725 200.861 554.909 200.861C556.092 200.861 557.052 201.552 557.052 202.404Z" fill="white"/>
<path d="M785.099 164.624C785.099 165.476 784.139 166.167 782.956 166.167C781.772 166.167 780.812 165.476 780.812 164.624C780.812 163.772 781.772 163.081 782.956 163.081C784.139 163.081 785.099 163.772 785.099 164.624Z" fill="white"/>
<path d="M999.802 183.668C999.802 184.52 998.842 185.211 997.659 185.211C996.475 185.211 995.516 184.52 995.516 183.668C995.516 182.816 996.475 182.125 997.659 182.125C998.839 182.125 999.802 182.816 999.802 183.668Z" fill="white"/>
<path d="M1095.03 234.148C1095.03 235 1094.07 235.691 1092.89 235.691C1091.7 235.691 1090.74 235 1090.74 234.148C1090.74 233.295 1091.7 232.604 1092.89 232.604C1094.07 232.604 1095.03 233.295 1095.03 234.148Z" fill="white"/>
<path d="M1199.47 382.507C1199.47 383.359 1198.51 384.05 1197.33 384.05C1196.15 384.05 1195.19 383.359 1195.19 382.507C1195.19 381.655 1196.15 380.964 1197.33 380.964C1198.51 380.962 1199.47 381.653 1199.47 382.507Z" fill="white"/>
<path d="M1262.75 507.69C1262.75 508.542 1261.8 509.233 1260.61 509.233C1259.43 509.233 1258.47 508.542 1258.47 507.69C1258.47 506.837 1259.43 506.146 1260.61 506.146C1261.8 506.146 1262.75 506.837 1262.75 507.69Z" fill="white"/>
<path d="M1271.12 605.741C1272.3 605.741 1273.26 605.05 1273.26 604.198C1273.26 603.346 1272.3 602.655 1271.12 602.655C1269.94 602.655 1268.98 603.346 1268.98 604.198C1268.98 605.05 1269.94 605.741 1271.12 605.741Z" fill="white"/>
<path d="M1260.84 725.135C1260.84 725.987 1259.88 726.678 1258.7 726.678C1257.51 726.678 1256.55 725.987 1256.55 725.135C1256.55 724.283 1257.51 723.592 1258.7 723.592C1259.88 723.592 1260.84 724.28 1260.84 725.135Z" fill="white"/>
<path d="M1194.29 821.861C1194.29 822.714 1193.33 823.404 1192.15 823.404C1190.97 823.404 1190.01 822.714 1190.01 821.861C1190.01 821.009 1190.97 820.318 1192.15 820.318C1193.33 820.318 1194.29 821.009 1194.29 821.861Z" fill="white"/>
<path d="M1081.11 854.847C1081.11 855.699 1080.15 856.39 1078.96 856.39C1077.78 856.39 1076.82 855.699 1076.82 854.847C1076.82 853.995 1077.78 853.304 1078.96 853.304C1080.15 853.304 1081.11 853.995 1081.11 854.847Z" fill="white"/>
<path d="M1034.45 815.401C1034.45 816.254 1033.49 816.945 1032.31 816.945C1031.12 816.945 1030.16 816.254 1030.16 815.401C1030.16 814.549 1031.12 813.858 1032.31 813.858C1033.49 813.856 1034.45 814.547 1034.45 815.401Z" fill="white"/>
<path d="M1070.74 701.245C1071.92 701.245 1072.88 700.554 1072.88 699.702C1072.88 698.85 1071.92 698.159 1070.74 698.159C1069.55 698.159 1068.59 698.85 1068.59 699.702C1068.59 700.554 1069.55 701.245 1070.74 701.245Z" fill="white"/>
<path d="M1186.3 679.441C1186.3 680.293 1185.34 680.984 1184.16 680.984C1182.98 680.984 1182.02 680.293 1182.02 679.441C1182.02 678.588 1182.98 677.897 1184.16 677.897C1185.34 677.897 1186.3 678.588 1186.3 679.441Z" fill="white"/>
<path d="M1203.42 757.128C1203.42 757.98 1202.46 758.671 1201.28 758.671C1200.09 758.671 1199.13 757.98 1199.13 757.128C1199.13 756.276 1200.09 755.585 1201.28 755.585C1202.46 755.583 1203.42 756.276 1203.42 757.128Z" fill="white"/>
<path d="M1140.9 765.98C1140.9 766.832 1139.94 767.523 1138.76 767.523C1137.58 767.523 1136.62 766.832 1136.62 765.98C1136.62 765.127 1137.58 764.437 1138.76 764.437C1139.94 764.437 1140.9 765.127 1140.9 765.98Z" fill="white"/>
<path d="M1225.91 537.714C1225.91 538.566 1224.95 539.257 1223.77 539.257C1222.58 539.257 1221.62 538.566 1221.62 537.714C1221.62 536.862 1222.58 536.171 1223.77 536.171C1224.95 536.171 1225.91 536.862 1225.91 537.714Z" fill="white"/>
<path d="M1349.46 373.802C1349.46 374.654 1348.5 375.345 1347.31 375.345C1346.13 375.345 1345.17 374.654 1345.17 373.802C1345.17 372.95 1346.13 372.259 1347.31 372.259C1348.5 372.259 1349.46 372.95 1349.46 373.802Z" fill="white"/>
<path d="M1328 275.531C1328 276.384 1327.04 277.074 1325.85 277.074C1324.67 277.074 1323.71 276.384 1323.71 275.531C1323.71 274.679 1324.67 273.988 1325.85 273.988C1327.04 273.988 1328 274.679 1328 275.531Z" fill="white"/>
<path d="M1151.34 225.863C1151.34 226.716 1150.38 227.406 1149.2 227.406C1148.01 227.406 1147.05 226.716 1147.05 225.863C1147.05 225.011 1148.01 224.32 1149.2 224.32C1150.38 224.32 1151.34 225.011 1151.34 225.863Z" fill="white"/>
<path d="M1071.13 312.336C1071.13 313.188 1070.17 313.879 1068.99 313.879C1067.8 313.879 1066.84 313.188 1066.84 312.336C1066.84 311.484 1067.8 310.793 1068.99 310.793C1070.17 310.793 1071.13 311.484 1071.13 312.336Z" fill="white"/>
<path d="M1202.73 323.779C1203.91 323.779 1204.87 323.089 1204.87 322.236C1204.87 321.384 1203.91 320.693 1202.73 320.693C1201.55 320.693 1200.59 321.384 1200.59 322.236C1200.59 323.089 1201.55 323.779 1202.73 323.779Z" fill="white"/>
<path d="M1152.33 182.627C1152.33 183.479 1151.37 184.17 1150.19 184.17C1149.01 184.17 1148.05 183.479 1148.05 182.627C1148.05 181.775 1149.01 181.084 1150.19 181.084C1151.37 181.084 1152.33 181.775 1152.33 182.627Z" fill="white"/>
<path d="M969.411 126.106C969.411 126.959 968.452 127.65 967.268 127.65C966.084 127.65 965.125 126.959 965.125 126.106C965.125 125.254 966.084 124.563 967.268 124.563C968.452 124.563 969.411 125.254 969.411 126.106Z" fill="white"/>
<path d="M965.825 167.357C965.825 168.21 964.866 168.901 963.682 168.901C962.498 168.901 961.539 168.21 961.539 167.357C961.539 166.505 962.498 165.814 963.682 165.814C964.866 165.814 965.825 166.503 965.825 167.357Z" fill="white"/>
<path d="M1023.2 61.4434C1023.2 62.2956 1022.24 62.9865 1021.06 62.9865C1019.87 62.9865 1018.91 62.2956 1018.91 61.4434C1018.91 60.5912 1019.87 59.9004 1021.06 59.9004C1022.24 59.9004 1023.2 60.5912 1023.2 61.4434Z" fill="white"/>
<path d="M721.567 81.3331C721.567 82.1853 720.608 82.8761 719.424 82.8761C718.241 82.8761 717.281 82.1853 717.281 81.3331C717.281 80.4809 718.241 79.79 719.424 79.79C720.608 79.7879 721.567 80.4787 721.567 81.3331Z" fill="white"/>
<path d="M620.31 219.698C620.31 220.551 619.35 221.241 618.167 221.241C616.983 221.241 616.023 220.551 616.023 219.698C616.023 218.846 616.983 218.155 618.167 218.155C619.35 218.155 620.31 218.846 620.31 219.698Z" fill="white"/>
<path d="M601.278 172.747C601.278 173.599 600.319 174.29 599.135 174.29C597.952 174.29 596.992 173.599 596.992 172.747C596.992 171.895 597.952 171.204 599.135 171.204C600.319 171.204 601.278 171.895 601.278 172.747Z" fill="white"/>
<path d="M363.388 235.496C363.388 236.348 362.428 237.039 361.245 237.039C360.061 237.039 359.102 236.348 359.102 235.496C359.102 234.644 360.061 233.953 361.245 233.953C362.428 233.953 363.388 234.644 363.388 235.496Z" fill="white"/>
<path d="M321.052 352.954C321.052 353.806 320.092 354.497 318.909 354.497C317.725 354.497 316.766 353.806 316.766 352.954C316.766 352.102 317.725 351.411 318.909 351.411C320.092 351.411 321.052 352.102 321.052 352.954Z" fill="white"/>
<path d="M295.552 321.37C295.552 322.222 294.592 322.913 293.409 322.913C292.225 322.913 291.266 322.222 291.266 321.37C291.266 320.518 292.225 319.827 293.409 319.827C294.589 319.827 295.552 320.518 295.552 321.37Z" fill="white"/>
<path d="M131.661 429.125C131.661 429.977 130.702 430.668 129.518 430.668C128.334 430.668 127.375 429.977 127.375 429.125C127.375 428.273 128.334 427.582 129.518 427.582C130.702 427.582 131.661 428.273 131.661 429.125Z" fill="white"/>
<path d="M156.974 562.221C156.974 563.073 156.014 563.764 154.831 563.764C153.647 563.764 152.688 563.073 152.688 562.221C152.688 561.369 153.647 560.678 154.831 560.678C156.014 560.678 156.974 561.369 156.974 562.221Z" fill="white"/>
<path d="M204.271 587.642C204.271 588.494 203.311 589.185 202.127 589.185C200.944 589.185 199.984 588.494 199.984 587.642C199.984 586.789 200.944 586.099 202.127 586.099C203.311 586.096 204.271 586.789 204.271 587.642Z" fill="white"/>
<path d="M40.6612 689.377C40.6612 690.229 39.7017 690.92 38.5181 690.92C37.3345 690.92 36.375 690.229 36.375 689.377C36.375 688.525 37.3345 687.834 38.5181 687.834C39.7017 687.834 40.6612 688.525 40.6612 689.377Z" fill="white"/>
<path d="M65.7993 743.421C66.9829 743.421 67.9424 742.73 67.9424 741.878C67.9424 741.026 66.9829 740.335 65.7993 740.335C64.6157 740.335 63.6562 741.026 63.6562 741.878C63.6562 742.73 64.6157 743.421 65.7993 743.421Z" fill="white"/>
<path d="M152.31 754.191C152.31 755.044 151.35 755.734 150.167 755.734C148.983 755.734 148.023 755.044 148.023 754.191C148.023 753.339 148.983 752.648 150.167 752.648C151.347 752.648 152.31 753.339 152.31 754.191Z" fill="white"/>
<path d="M206.583 876.376C206.583 877.228 205.624 877.919 204.44 877.919C203.256 877.919 202.297 877.228 202.297 876.376C202.297 875.524 203.256 874.833 204.44 874.833C205.624 874.831 206.583 875.522 206.583 876.376Z" fill="white"/>
<path d="M192.958 879.168C192.958 880.02 191.999 880.711 190.815 880.711C189.631 880.711 188.672 880.02 188.672 879.168C188.672 878.316 189.631 877.625 190.815 877.625C191.996 877.625 192.958 878.316 192.958 879.168Z" fill="white"/>
<path d="M144.958 935.054C144.958 935.906 143.999 936.597 142.815 936.597C141.631 936.597 140.672 935.906 140.672 935.054C140.672 934.202 141.631 933.511 142.815 933.511C143.999 933.509 144.958 934.202 144.958 935.054Z" fill="white"/>
<path d="M111.497 885.479C111.497 886.331 110.538 887.022 109.354 887.022C108.17 887.022 107.211 886.331 107.211 885.479C107.211 884.626 108.17 883.936 109.354 883.936C110.538 883.936 111.497 884.626 111.497 885.479Z" fill="white"/>
<path d="M195.271 910.887C195.271 911.739 194.311 912.43 193.127 912.43C191.944 912.43 190.984 911.739 190.984 910.887C190.984 910.035 191.944 909.344 193.127 909.344C194.311 909.344 195.271 910.035 195.271 910.887Z" fill="white"/>
<path d="M107.06 967.931C107.06 968.783 106.1 969.474 104.917 969.474C103.733 969.474 102.773 968.783 102.773 967.931C102.773 967.079 103.733 966.388 104.917 966.388C106.097 966.388 107.06 967.079 107.06 967.931Z" fill="white"/>
<path d="M129.794 812.209C129.794 813.061 128.835 813.752 127.651 813.752C126.467 813.752 125.508 813.061 125.508 812.209C125.508 811.357 126.467 810.666 127.651 810.666C128.835 810.664 129.794 811.355 129.794 812.209Z" fill="white"/>
<path d="M312.599 885.655C312.599 886.508 311.639 887.198 310.456 887.198C309.272 887.198 308.312 886.508 308.312 885.655C308.312 884.803 309.272 884.112 310.456 884.112C311.639 884.112 312.599 884.803 312.599 885.655Z" fill="white"/>
<path d="M212.06 1014.14C212.06 1014.99 211.1 1015.69 209.917 1015.69C208.733 1015.69 207.773 1014.99 207.773 1014.14C207.773 1013.29 208.733 1012.6 209.917 1012.6C211.1 1012.6 212.06 1013.29 212.06 1014.14Z" fill="white"/>
<path d="M233.856 915.33C233.856 916.182 232.897 916.873 231.713 916.873C230.53 916.873 229.57 916.182 229.57 915.33C229.57 914.478 230.53 913.787 231.713 913.787C232.897 913.787 233.856 914.476 233.856 915.33Z" fill="white"/>
<path d="M439.114 971.313C439.114 972.165 438.155 972.856 436.971 972.856C435.788 972.856 434.828 972.165 434.828 971.313C434.828 970.46 435.788 969.77 436.971 969.77C438.155 969.77 439.114 970.46 439.114 971.313Z" fill="white"/>
<path d="M416.364 1017.46C416.364 1018.31 415.405 1019 414.221 1019C413.038 1019 412.078 1018.31 412.078 1017.46C412.078 1016.6 413.038 1015.91 414.221 1015.91C415.405 1015.91 416.364 1016.6 416.364 1017.46Z" fill="white"/>
<path d="M447.825 909.548C447.825 910.4 446.866 911.091 445.682 911.091C444.499 911.091 443.539 910.4 443.539 909.548C443.539 908.696 444.499 908.005 445.682 908.005C446.866 908.005 447.825 908.696 447.825 909.548Z" fill="white"/>
<path d="M613.958 948.929C613.958 949.781 612.999 950.472 611.815 950.472C610.631 950.472 609.672 949.781 609.672 948.929C609.672 948.077 610.631 947.386 611.815 947.386C612.999 947.386 613.958 948.077 613.958 948.929Z" fill="white"/>
<path d="M580.583 968.195C580.583 969.048 579.624 969.738 578.44 969.738C577.256 969.738 576.297 969.048 576.297 968.195C576.297 967.343 577.256 966.652 578.44 966.652C579.624 966.65 580.583 967.343 580.583 968.195Z" fill="white"/>
<path d="M705.786 853.967C705.786 854.819 704.827 855.51 703.643 855.51C702.459 855.51 701.5 854.819 701.5 853.967C701.5 853.115 702.459 852.424 703.643 852.424C704.827 852.424 705.786 853.115 705.786 853.967Z" fill="white"/>
<path d="M842.263 914.924C842.263 915.776 841.303 916.467 840.12 916.467C838.936 916.467 837.977 915.776 837.977 914.924C837.977 914.072 838.936 913.381 840.12 913.381C841.303 913.381 842.263 914.07 842.263 914.924Z" fill="white"/>
<path d="M781.083 931.372C781.083 932.224 780.124 932.915 778.94 932.915C777.756 932.915 776.797 932.224 776.797 931.372C776.797 930.52 777.756 929.829 778.94 929.829C780.124 929.829 781.083 930.52 781.083 931.372Z" fill="white"/>
<path d="M983.614 869.668C983.614 870.52 982.655 871.211 981.471 871.211C980.288 871.211 979.328 870.52 979.328 869.668C979.328 868.816 980.288 868.125 981.471 868.125C982.655 868.123 983.614 868.816 983.614 869.668Z" fill="white"/>
<path d="M1094.34 977.044C1094.34 977.896 1093.38 978.587 1092.2 978.587C1091.01 978.587 1090.05 977.896 1090.05 977.044C1090.05 976.192 1091.01 975.501 1092.2 975.501C1093.38 975.501 1094.34 976.192 1094.34 977.044Z" fill="white"/>
<path d="M1038.65 925.138C1038.65 925.99 1037.69 926.681 1036.51 926.681C1035.33 926.681 1034.37 925.99 1034.37 925.138C1034.37 924.286 1035.33 923.595 1036.51 923.595C1037.69 923.593 1038.65 924.283 1038.65 925.138Z" fill="white"/>
<path d="M1192.58 885.884C1192.58 886.736 1191.62 887.427 1190.44 887.427C1189.26 887.427 1188.3 886.736 1188.3 885.884C1188.3 885.032 1189.26 884.341 1190.44 884.341C1191.62 884.341 1192.58 885.032 1192.58 885.884Z" fill="white"/>
<path d="M1207.02 963.731C1207.02 964.583 1206.06 965.274 1204.88 965.274C1203.69 965.274 1202.73 964.583 1202.73 963.731C1202.73 962.878 1203.69 962.188 1204.88 962.188C1206.06 962.188 1207.02 962.878 1207.02 963.731Z" fill="white"/>
<path d="M1177.06 895.12C1177.06 895.972 1176.1 896.663 1174.92 896.663C1173.73 896.663 1172.77 895.972 1172.77 895.12C1172.77 894.268 1173.73 893.577 1174.92 893.577C1176.1 893.577 1177.06 894.268 1177.06 895.12Z" fill="white"/>
<path d="M1343.43 828.732C1343.43 829.584 1342.47 830.275 1341.28 830.275C1340.1 830.275 1339.14 829.584 1339.14 828.732C1339.14 827.879 1340.1 827.188 1341.28 827.188C1342.47 827.186 1343.43 827.877 1343.43 828.732Z" fill="white"/>
<path d="M1362.72 877.181C1362.72 878.033 1361.76 878.724 1360.57 878.724C1359.39 878.724 1358.43 878.033 1358.43 877.181C1358.43 876.329 1359.39 875.638 1360.57 875.638C1361.75 875.636 1362.72 876.329 1362.72 877.181Z" fill="white"/>
<path d="M1337.2 804.512C1338.38 804.512 1339.34 803.821 1339.34 802.969C1339.34 802.117 1338.38 801.426 1337.2 801.426C1336.01 801.426 1335.05 802.117 1335.05 802.969C1335.05 803.821 1336.01 804.512 1337.2 804.512Z" fill="white"/>
<path d="M1374.38 755.678C1375.56 755.678 1376.52 754.987 1376.52 754.135C1376.52 753.283 1375.56 752.592 1374.38 752.592C1373.19 752.592 1372.23 753.283 1372.23 754.135C1372.23 754.987 1373.19 755.678 1374.38 755.678Z" fill="white"/>
<path d="M1395.93 830.648C1395.93 831.501 1394.97 832.192 1393.78 832.192C1392.6 832.192 1391.64 831.501 1391.64 830.648C1391.64 829.796 1392.6 829.105 1393.78 829.105C1394.97 829.105 1395.93 829.796 1395.93 830.648Z" fill="white"/>
<path d="M1394.45 893.849C1394.45 894.701 1393.49 895.392 1392.31 895.392C1391.12 895.392 1390.16 894.701 1390.16 893.849C1390.16 892.997 1391.12 892.306 1392.31 892.306C1393.49 892.306 1394.45 892.997 1394.45 893.849Z" fill="white"/>
<path d="M1392.87 945.815C1392.87 946.667 1391.91 947.358 1390.73 947.358C1389.55 947.358 1388.59 946.667 1388.59 945.815C1388.59 944.962 1389.55 944.271 1390.73 944.271C1391.91 944.271 1392.87 944.96 1392.87 945.815Z" fill="white"/>
<path d="M1357.91 981.239C1357.91 982.092 1356.95 982.782 1355.77 982.782C1354.58 982.782 1353.62 982.092 1353.62 981.239C1353.62 980.387 1354.58 979.696 1355.77 979.696C1356.95 979.696 1357.91 980.387 1357.91 981.239Z" fill="white"/>
<path d="M1254.37 1004.33C1254.37 1005.18 1253.41 1005.87 1252.23 1005.87C1251.05 1005.87 1250.09 1005.18 1250.09 1004.33C1250.09 1003.48 1251.05 1002.79 1252.23 1002.79C1253.41 1002.79 1254.37 1003.48 1254.37 1004.33Z" fill="white"/>
<path d="M1084.43 1002.02C1084.43 1002.87 1083.47 1003.56 1082.28 1003.56C1081.1 1003.56 1080.14 1002.87 1080.14 1002.02C1080.14 1001.16 1081.1 1000.47 1082.28 1000.47C1083.47 1000.47 1084.43 1001.16 1084.43 1002.02Z" fill="white"/>
<path d="M808.153 998.27C808.153 999.122 807.194 999.813 806.01 999.813C804.827 999.813 803.867 999.122 803.867 998.27C803.867 997.417 804.827 996.727 806.01 996.727C807.194 996.727 808.153 997.415 808.153 998.27Z" fill="white"/>
<path d="M576.724 998.606C576.724 999.458 575.764 1000.15 574.581 1000.15C573.397 1000.15 572.438 999.458 572.438 998.606C572.438 997.753 573.397 997.062 574.581 997.062C575.764 997.062 576.724 997.751 576.724 998.606Z" fill="white"/>
<path d="M392.903 996.967C392.903 997.819 391.944 998.51 390.76 998.51C389.577 998.51 388.617 997.819 388.617 996.967C388.617 996.115 389.577 995.424 390.76 995.424C391.944 995.424 392.903 996.115 392.903 996.967Z" fill="white"/>
<path d="M257.88 985.88C257.88 986.732 256.92 987.423 255.737 987.423C254.553 987.423 253.594 986.732 253.594 985.88C253.594 985.028 254.553 984.337 255.737 984.337C256.92 984.337 257.88 985.028 257.88 985.88Z" fill="white"/>
<path d="M169.771 959.674C169.771 960.526 168.811 961.217 167.627 961.217C166.444 961.217 165.484 960.526 165.484 959.674C165.484 958.822 166.444 958.131 167.627 958.131C168.811 958.131 169.771 958.822 169.771 959.674Z" fill="white"/>
<path d="M106.877 916.279C108.061 916.279 109.021 915.589 109.021 914.736C109.021 913.884 108.061 913.193 106.877 913.193C105.694 913.193 104.734 913.884 104.734 914.736C104.734 915.589 105.694 916.279 106.877 916.279Z" fill="white"/>
<path d="M74.2705 798.522C74.2705 799.375 73.3111 800.066 72.1275 800.066C70.9438 800.066 69.9844 799.375 69.9844 798.522C69.9844 797.67 70.9438 796.979 72.1275 796.979C73.3081 796.979 74.2705 797.67 74.2705 798.522Z" fill="white"/>
<path d="M40.919 650.693C40.919 651.546 39.9595 652.237 38.7759 652.237C37.5923 652.237 36.6328 651.546 36.6328 650.693C36.6328 649.841 37.5923 649.15 38.7759 649.15C39.9595 649.15 40.919 649.841 40.919 650.693Z" fill="white"/>
<path d="M35.6299 559.927C35.6299 560.779 34.6705 561.47 33.4868 561.47C32.3032 561.47 31.3438 560.779 31.3438 559.927C31.3438 559.075 32.3032 558.384 33.4868 558.384C34.6705 558.384 35.6299 559.075 35.6299 559.927Z" fill="white"/>
<path d="M80.9424 485.132C80.9424 485.984 79.983 486.675 78.7993 486.675C77.6157 486.675 76.6562 485.984 76.6562 485.132C76.6562 484.28 77.6157 483.589 78.7993 483.589C79.98 483.587 80.9424 484.28 80.9424 485.132Z" fill="white"/>
<path d="M310.567 433.145C310.567 433.997 309.608 434.688 308.424 434.688C307.241 434.688 306.281 433.997 306.281 433.145C306.281 432.292 307.241 431.602 308.424 431.602C309.605 431.602 310.567 432.292 310.567 433.145Z" fill="white"/>
<path d="M506.216 497.591C506.216 498.443 505.256 499.134 504.073 499.134C502.889 499.134 501.93 498.443 501.93 497.591C501.93 496.739 502.889 496.048 504.073 496.048C505.253 496.048 506.216 496.739 506.216 497.591Z" fill="white"/>
<path d="M546.927 716.776C546.927 717.629 545.967 718.32 544.784 718.32C543.6 718.32 542.641 717.629 542.641 716.776C542.641 715.924 543.6 715.233 544.784 715.233C545.967 715.233 546.927 715.922 546.927 716.776Z" fill="white"/>
<path d="M389.88 825.753C389.88 826.605 388.92 827.296 387.737 827.296C386.553 827.296 385.594 826.605 385.594 825.753C385.594 824.901 386.553 824.21 387.737 824.21C388.92 824.208 389.88 824.899 389.88 825.753Z" fill="white"/>
<path d="M357.474 805.861C357.474 806.714 356.514 807.404 355.331 807.404C354.147 807.404 353.188 806.714 353.188 805.861C353.188 805.009 354.147 804.318 355.331 804.318C356.511 804.316 357.474 805.007 357.474 805.861Z" fill="white"/>
<path d="M579.981 689.589C579.981 690.441 579.022 691.132 577.838 691.132C576.655 691.132 575.695 690.441 575.695 689.589C575.695 688.737 576.655 688.046 577.838 688.046C579.022 688.046 579.981 688.737 579.981 689.589Z" fill="white"/>
<path d="M807.294 860.287C807.294 861.139 806.335 861.83 805.151 861.83C803.967 861.83 803.008 861.139 803.008 860.287C803.008 859.435 803.967 858.744 805.151 858.744C806.335 858.744 807.294 859.435 807.294 860.287Z" fill="white"/>
<path d="M808.778 884.573C808.778 885.426 807.819 886.116 806.635 886.116C805.452 886.116 804.492 885.426 804.492 884.573C804.492 883.721 805.452 883.03 806.635 883.03C807.819 883.03 808.778 883.721 808.778 884.573Z" fill="white"/>
<path d="M944.768 699.128C945.952 699.128 946.911 698.437 946.911 697.585C946.911 696.733 945.952 696.042 944.768 696.042C943.585 696.042 942.625 696.733 942.625 697.585C942.625 698.437 943.585 699.128 944.768 699.128Z" fill="white"/>
<path d="M1188.64 693.392C1188.64 694.244 1187.68 694.935 1186.49 694.935C1185.31 694.935 1184.35 694.244 1184.35 693.392C1184.35 692.539 1185.31 691.849 1186.49 691.849C1187.68 691.849 1188.64 692.539 1188.64 693.392Z" fill="white"/>
<path d="M1200.12 775.627C1200.12 776.479 1199.16 777.17 1197.98 777.17C1196.8 777.17 1195.84 776.479 1195.84 775.627C1195.84 774.775 1196.8 774.084 1197.98 774.084C1199.16 774.084 1200.12 774.775 1200.12 775.627Z" fill="white"/>
<path d="M1182.86 641.109C1182.86 641.962 1181.9 642.653 1180.72 642.653C1179.54 642.653 1178.58 641.962 1178.58 641.109C1178.58 640.257 1179.54 639.566 1180.72 639.566C1181.9 639.564 1182.86 640.257 1182.86 641.109Z" fill="white"/>
<path d="M1299.08 523.841C1299.08 524.693 1298.12 525.384 1296.94 525.384C1295.76 525.384 1294.8 524.693 1294.8 523.841C1294.8 522.989 1295.76 522.298 1296.94 522.298C1298.12 522.298 1299.08 522.989 1299.08 523.841Z" fill="white"/>
<path d="M1338.04 474.322C1338.04 475.175 1337.08 475.865 1335.9 475.865C1334.72 475.865 1333.76 475.175 1333.76 474.322C1333.76 473.47 1334.72 472.779 1335.9 472.779C1337.08 472.779 1338.04 473.47 1338.04 474.322Z" fill="white"/>
<path d="M1322.49 405.807C1323.67 405.807 1324.63 405.116 1324.63 404.264C1324.63 403.412 1323.67 402.721 1322.49 402.721C1321.3 402.721 1320.34 403.412 1320.34 404.264C1320.34 405.116 1321.3 405.807 1322.49 405.807Z" fill="white"/>
<path d="M1218.27 328.793C1218.27 329.645 1217.31 330.336 1216.13 330.336C1214.94 330.336 1213.98 329.645 1213.98 328.793C1213.98 327.941 1214.94 327.25 1216.13 327.25C1217.31 327.25 1218.27 327.941 1218.27 328.793Z" fill="white"/>
<path d="M1105.21 282.667C1105.21 283.519 1104.25 284.21 1103.06 284.21C1101.88 284.21 1100.92 283.519 1100.92 282.667C1100.92 281.815 1101.88 281.124 1103.06 281.124C1104.25 281.122 1105.21 281.815 1105.21 282.667Z" fill="white"/>
<path d="M1018.97 272.301C1018.97 273.153 1018.01 273.844 1016.83 273.844C1015.65 273.844 1014.69 273.153 1014.69 272.301C1014.69 271.449 1015.65 270.758 1016.83 270.758C1018.01 270.758 1018.97 271.449 1018.97 272.301Z" fill="white"/>
<path d="M139.489 239.379C139.489 240.231 138.53 240.922 137.346 240.922C136.163 240.922 135.203 240.231 135.203 239.379C135.203 238.527 136.163 237.836 137.346 237.836C138.53 237.834 139.489 238.525 139.489 239.379Z" fill="white"/>
<path d="M70.044 350.654C70.044 351.507 69.0845 352.197 67.9009 352.197C66.7173 352.197 65.7578 351.507 65.7578 350.654C65.7578 349.802 66.7173 349.111 67.9009 349.111C69.0845 349.111 70.044 349.802 70.044 350.654Z" fill="white"/>
<path d="M103.927 391.78C103.927 392.633 102.967 393.323 101.784 393.323C100.6 393.323 99.6406 392.633 99.6406 391.78C99.6406 390.928 100.6 390.237 101.784 390.237C102.967 390.235 103.927 390.928 103.927 391.78Z" fill="white"/>
<path d="M187.81 315.604C187.81 316.456 186.85 317.147 185.667 317.147C184.483 317.147 183.523 316.456 183.523 315.604C183.523 314.751 184.483 314.061 185.667 314.061C186.85 314.061 187.81 314.751 187.81 315.604Z" fill="white"/>
<path d="M127.575 364.238C127.575 365.091 126.616 365.781 125.432 365.781C124.249 365.781 123.289 365.091 123.289 364.238C123.289 363.386 124.249 362.695 125.432 362.695C126.616 362.695 127.575 363.386 127.575 364.238Z" fill="white"/>
<path d="M188.552 409.089C188.552 409.941 187.592 410.632 186.409 410.632C185.225 410.632 184.266 409.941 184.266 409.089C184.266 408.237 185.225 407.546 186.409 407.546C187.592 407.544 188.552 408.235 188.552 409.089Z" fill="white"/>
<path d="M248.021 200.638C248.021 201.49 247.061 202.181 245.877 202.181C244.694 202.181 243.734 201.49 243.734 200.638C243.734 199.786 244.694 199.095 245.877 199.095C247.061 199.095 248.021 199.786 248.021 200.638Z" fill="white"/>
<path d="M195.87 201.419C197.053 201.419 198.013 200.728 198.013 199.876C198.013 199.024 197.053 198.333 195.87 198.333C194.686 198.333 193.727 199.024 193.727 199.876C193.727 200.728 194.686 201.419 195.87 201.419Z" fill="white"/>
<path d="M385.099 202.419C385.099 203.271 384.139 203.962 382.956 203.962C381.772 203.962 380.812 203.271 380.812 202.419C380.812 201.567 381.772 200.876 382.956 200.876C384.139 200.876 385.099 201.567 385.099 202.419Z" fill="white"/>
<path d="M384.31 125.266C384.31 126.118 383.35 126.809 382.167 126.809C380.983 126.809 380.023 126.118 380.023 125.266C380.023 124.413 380.983 123.723 382.167 123.723C383.347 123.721 384.31 124.411 384.31 125.266Z" fill="white"/>
<path d="M469.56 186.102C469.56 186.954 468.6 187.645 467.417 187.645C466.233 187.645 465.273 186.954 465.273 186.102C465.273 185.249 466.233 184.559 467.417 184.559C468.6 184.559 469.56 185.249 469.56 186.102Z" fill="white"/>
<path d="M641.677 78.4903C641.677 79.3425 640.717 80.0333 639.534 80.0333C638.35 80.0333 637.391 79.3425 637.391 78.4903C637.391 77.6381 638.35 76.9473 639.534 76.9473C640.717 76.9451 641.677 77.6359 641.677 78.4903Z" fill="white"/>
<path d="M660.661 127.183C660.661 128.035 659.702 128.726 658.518 128.726C657.334 128.726 656.375 128.035 656.375 127.183C656.375 126.33 657.334 125.64 658.518 125.64C659.702 125.638 660.661 126.328 660.661 127.183Z" fill="white"/>
<path d="M848.989 76.5772C848.989 77.4294 848.03 78.1202 846.846 78.1202C845.663 78.1202 844.703 77.4294 844.703 76.5772C844.703 75.725 845.663 75.0342 846.846 75.0342C848.03 75.032 848.989 75.725 848.989 76.5772Z" fill="white"/>
<path d="M810.091 103.484C810.091 104.337 809.131 105.027 807.948 105.027C806.764 105.027 805.805 104.337 805.805 103.484C805.805 102.632 806.764 101.941 807.948 101.941C809.131 101.941 810.091 102.632 810.091 103.484Z" fill="white"/>
<path d="M956.341 118.05C956.341 118.902 955.381 119.593 954.198 119.593C953.014 119.593 952.055 118.902 952.055 118.05C952.055 117.198 953.014 116.507 954.198 116.507C955.381 116.507 956.341 117.196 956.341 118.05Z" fill="white"/>
<path d="M996.083 112.887C996.083 113.739 995.124 114.43 993.94 114.43C992.756 114.43 991.797 113.739 991.797 112.887C991.797 112.035 992.756 111.344 993.94 111.344C995.124 111.342 996.083 112.032 996.083 112.887Z" fill="white"/>
<path d="M1064.66 215.624C1064.66 216.476 1063.7 217.167 1062.52 217.167C1061.33 217.167 1060.38 216.476 1060.38 215.624C1060.38 214.772 1061.33 214.081 1062.52 214.081C1063.7 214.079 1064.66 214.772 1064.66 215.624Z" fill="white"/>
<path d="M1230.62 206.857C1230.62 207.709 1229.66 208.4 1228.48 208.4C1227.3 208.4 1226.34 207.709 1226.34 206.857C1226.34 206.004 1227.3 205.313 1228.48 205.313C1229.66 205.313 1230.62 206.004 1230.62 206.857Z" fill="white"/>
<path d="M1195.47 343.571C1195.47 344.424 1194.51 345.114 1193.33 345.114C1192.15 345.114 1191.19 344.424 1191.19 343.571C1191.19 342.719 1192.15 342.028 1193.33 342.028C1194.51 342.026 1195.47 342.719 1195.47 343.571Z" fill="white"/>
<path d="M1301.18 383.001C1301.18 383.853 1300.23 384.544 1299.04 384.544C1297.86 384.544 1296.9 383.853 1296.9 383.001C1296.9 382.149 1297.86 381.458 1299.04 381.458C1300.23 381.458 1301.18 382.149 1301.18 383.001Z" fill="white"/>
<path d="M1231.83 525.854C1231.83 526.706 1230.87 527.397 1229.69 527.397C1228.51 527.397 1227.55 526.706 1227.55 525.854C1227.55 525.001 1228.51 524.311 1229.69 524.311C1230.87 524.311 1231.83 525.001 1231.83 525.854Z" fill="white"/>
<path d="M1267.82 624.355C1267.82 625.208 1266.86 625.899 1265.67 625.899C1264.49 625.899 1263.53 625.208 1263.53 624.355C1263.53 623.503 1264.49 622.813 1265.67 622.813C1266.86 622.81 1267.82 623.503 1267.82 624.355Z" fill="white"/>
<path d="M102.017 89.328C105.318 89.328 107.995 87.401 107.995 85.0239C107.995 82.6468 105.318 80.7197 102.017 80.7197C98.7155 80.7197 96.0391 82.6468 96.0391 85.0239C96.0391 87.401 98.7155 89.328 102.017 89.328Z" fill="white"/>
<path d="M532.431 43.0585C535.733 43.0585 538.409 41.1314 538.409 38.7543C538.409 36.3772 535.733 34.4502 532.431 34.4502C529.13 34.4502 526.453 36.3772 526.453 38.7543C526.453 41.1314 529.13 43.0585 532.431 43.0585Z" fill="white"/>
<path d="M1154.11 47.3632C1157.41 47.3632 1160.09 45.4361 1160.09 43.059C1160.09 40.6819 1157.41 38.7549 1154.11 38.7549C1150.81 38.7549 1148.13 40.6819 1148.13 43.059C1148.13 45.4361 1150.81 47.3632 1154.11 47.3632Z" fill="white"/>
<path d="M1423.14 738.241C1426.44 738.241 1429.12 736.314 1429.12 733.937C1429.12 731.56 1426.44 729.633 1423.14 729.633C1419.84 729.633 1417.16 731.56 1417.16 733.937C1417.16 736.314 1419.84 738.241 1423.14 738.241Z" fill="white"/>
<path d="M1411.18 333.977C1414.48 333.977 1417.16 332.05 1417.16 329.673C1417.16 327.296 1414.48 325.369 1411.18 325.369C1407.88 325.369 1405.2 327.296 1405.2 329.673C1405.2 332.05 1407.88 333.977 1411.18 333.977Z" fill="white"/>
<path d="M69.1889 476.7C72.4904 476.7 75.1668 474.773 75.1668 472.396C75.1668 470.019 72.4904 468.092 69.1889 468.092C65.8873 468.092 63.2109 470.019 63.2109 472.396C63.2109 474.773 65.8873 476.7 69.1889 476.7Z" fill="white"/>
<path d="M134.9 845.78C138.201 845.78 140.878 843.853 140.878 841.476C140.878 839.099 138.201 837.172 134.9 837.172C131.598 837.172 128.922 839.099 128.922 841.476C128.922 843.853 131.598 845.78 134.9 845.78Z" fill="white"/>
<path d="M1101.1 932.939C1104.4 932.939 1107.08 931.012 1107.08 928.635C1107.08 926.258 1104.4 924.331 1101.1 924.331C1097.8 924.331 1095.12 926.258 1095.12 928.635C1095.12 931.012 1097.8 932.939 1101.1 932.939Z" fill="white"/>
</svg>
