<svg width="110" height="110" viewBox="0 0 110 110" fill="none" xmlns="http://www.w3.org/2000/svg">
<rect width="110" height="110" rx="10" fill="#1F1D1E"/>
<path d="M82.9912 32.9299C82.9748 31.9572 82.944 31.1616 82.8885 30.488C82.8514 29.759 82.7209 29.0377 82.5003 28.3412C82.4756 28.272 82.451 28.2069 82.4243 28.1377C82.0511 27.2922 81.4417 26.5699 80.6678 26.0561C79.9618 25.5786 79.1615 25.2554 78.3197 25.1078C77.9386 25.04 77.5524 25.0039 77.1652 25H76.2038H74.0632H71.3515L68.6419 25.0163L65.9302 25.0346C65.016 25.0346 64.1059 25.0488 63.2185 25.059C62.2755 25.059 61.3696 25.0793 60.5047 25.0895C59.5063 25.1038 58.586 25.12 57.7889 25.1363C56.8337 25.1567 56.0571 25.1811 55.5292 25.2076C55.2895 25.2099 55.0504 25.2317 54.8143 25.2727C54.6724 25.337 54.552 25.4401 54.4671 25.5697C54.3609 25.727 54.2792 25.8992 54.2247 26.0805C54.1582 26.293 54.1108 26.5109 54.0829 26.7317C54.0522 26.9692 54.0371 27.2084 54.0377 27.4479C54.0377 27.6514 54.0501 27.8427 54.0706 28.0319C54.0897 28.2133 54.1199 28.3934 54.161 28.5712C54.1973 28.725 54.2468 28.8754 54.3089 29.0209C54.3594 29.1384 54.4287 29.247 54.5143 29.3424C54.7465 29.5866 54.9745 29.7372 55.5723 29.8287C56.3223 29.9147 57.0771 29.9541 57.8321 29.9467C58.5449 29.9467 59.4303 29.9467 60.5335 29.9467L63.239 29.9325L65.9466 29.9162L68.6542 29.9061H70.8975H71.3597H74.0693H74.5665L73.2887 31.2348L70.575 34.0612C69.6533 35.0244 68.748 35.9659 67.8592 36.8856C66.9347 37.8488 66.0295 38.7903 65.1434 39.71L62.4276 42.5344L59.72 45.3914L57.0001 48.2137L54.2801 51.034L51.5602 53.8544L49.2697 56.2209L48.2836 55.2889C47.9077 54.9369 47.5831 54.6276 47.1496 54.2023C46.8497 53.9052 46.4984 53.5532 46.0403 53.0892C45.7835 52.8288 45.4938 52.5317 45.161 52.1899L44.9556 51.966L43.8709 50.8306L42.7924 49.689C42.3651 49.2352 42.0097 48.8608 41.7098 48.5515C41.3559 48.1652 40.975 47.8041 40.5697 47.471C40.2485 47.1955 39.8309 47.0559 39.4069 47.0823C39.2174 47.0824 39.0285 47.1043 38.844 47.1475C38.6592 47.1885 38.4795 47.2492 38.3079 47.3286C38.1347 47.4064 37.9701 47.5019 37.8169 47.6134C37.6678 47.7238 37.5302 47.8485 37.406 47.9858C37.2303 48.1729 37.0848 48.3856 36.9746 48.6166C36.9185 48.7312 36.8724 48.8503 36.837 48.9727C36.8002 49.0957 36.7748 49.2217 36.7609 49.3492C36.7222 49.6072 36.7355 49.8702 36.8 50.1231C36.8646 50.3759 36.9791 50.6136 37.1369 50.8224C37.4355 51.2535 37.7665 51.6616 38.1271 52.0433C38.4249 52.3709 38.7803 52.7454 39.2076 53.1849C39.5343 53.5166 39.9 53.889 40.3129 54.3C40.6518 54.6398 41.0196 55.0081 41.4243 55.409L42.3179 56.2962L42.5397 56.5139L43.6573 57.6189L44.7769 58.7197L45.8513 59.7778L43.419 62.297L40.6744 65.1295L37.9545 67.9499L35.2366 70.7743C34.2437 71.808 33.3405 72.7508 32.527 73.6027C31.4999 74.6812 30.6083 75.6233 29.8338 76.4515C28.7224 77.6358 27.8576 78.578 27.1858 79.341C26.514 80.1041 26.0333 80.68 25.6985 81.1297C25.1664 81.848 25 82.2428 25 82.5399C25.0028 82.6202 25.0173 82.6997 25.0431 82.7759C25.0773 82.8822 25.1199 82.9856 25.1705 83.0852C25.2313 83.2081 25.2999 83.327 25.3759 83.4413C25.4602 83.5713 25.5522 83.6963 25.6512 83.8157C25.7822 83.9734 25.9242 84.1216 26.0765 84.2593C26.2361 84.3996 26.4079 84.5256 26.59 84.6358C26.7756 84.7476 26.9743 84.8365 27.1817 84.9003C27.3946 84.9655 27.6162 84.9991 27.8391 85C28.0835 85 28.3321 84.9145 29.0059 84.3346C29.3983 83.9948 29.9365 83.486 30.7048 82.723C31.4074 82.025 32.3031 81.1134 33.4535 79.9291C34.2362 79.1152 35.136 78.1913 36.1755 77.1108C36.9972 76.2623 37.8929 75.3242 38.8892 74.2844C39.726 73.4162 40.6299 72.4734 41.6009 71.4559L44.3126 68.6275L47.0223 65.797L49.4053 63.3104L50.3523 64.2444L51.4698 65.3493L52.5853 66.4542L53.7008 67.5592L54.8143 68.6661L55.9277 69.7751L57.0391 70.8841L58.1484 71.9931L58.2635 72.1091C58.5844 72.453 58.9275 72.7758 59.2906 73.0757C59.6184 73.3201 60.0051 73.4751 60.4123 73.5254C60.5884 73.5251 60.7643 73.5108 60.9382 73.4827C61.1036 73.4547 61.2655 73.409 61.4209 73.3463C61.583 73.2801 61.7367 73.1954 61.8791 73.094C62.0255 72.9887 62.1629 72.8717 62.2899 72.744L62.3269 72.7053C62.475 72.5571 62.6123 72.3987 62.7378 72.2312C62.8464 72.0894 62.942 71.9383 63.0233 71.7795C63.0927 71.6415 63.1458 71.4961 63.1815 71.3461C63.2144 71.2075 63.2282 71.0651 63.2226 70.9228C63.186 70.4764 63.0221 70.0495 62.7501 69.6917C62.4427 69.2666 62.099 68.8683 61.7229 68.5013C61.386 68.1615 61.008 67.7993 60.5972 67.4045C60.2644 67.0871 59.9131 66.7473 59.5495 66.3871L59.4735 66.3138L58.3641 65.2028L57.2527 64.0938L56.1393 62.9848L55.0259 61.8778L53.9104 60.7729L52.8421 59.7188L55.145 57.3177L57.8567 54.4892L60.5705 51.6628L63.2842 48.8384L66 46.012L68.7158 43.1876C69.6005 42.2665 70.5058 41.3257 71.4316 40.3653L74.1495 37.5409L76.8673 34.7185L77.7527 33.7988C77.8277 33.7171 77.8964 33.6301 77.9582 33.5383C77.9582 34.1854 77.9582 34.8996 77.9582 35.6647C77.9582 36.5051 77.9582 37.4045 77.9417 38.3344C77.9417 39.2094 77.9274 40.1109 77.9212 41.0164C77.915 41.9219 77.9068 42.8213 77.9048 43.7045C77.9048 44.6324 77.9048 45.5359 77.9048 46.3946C77.9048 46.8015 77.9048 47.2085 77.9048 47.589C77.9048 48.1507 77.9171 48.6512 77.9274 49.0948C77.9322 49.9887 77.9822 50.8818 78.0773 51.7707C78.1924 52.6477 78.3752 52.8329 78.6628 53.0872C78.7869 53.1941 78.9251 53.2838 79.0737 53.3538C79.2225 53.4235 79.378 53.478 79.5379 53.5166C79.7067 53.5556 79.8785 53.5808 80.0515 53.5919C80.2342 53.6031 80.4174 53.6031 80.6 53.5919H80.7377C80.8754 53.5827 81.0125 53.5664 81.1485 53.543C81.3105 53.5157 81.4695 53.4727 81.6231 53.4148C81.7597 53.3629 81.8894 53.2945 82.0093 53.2114C82.1199 53.1381 82.2213 53.052 82.3113 52.955C82.5981 52.6147 82.7806 52.2002 82.8372 51.7605C82.9707 51.0076 82.9296 50.0756 82.9255 49.0704V48.932C82.9255 48.0516 82.9255 47.2078 82.9255 46.4007C82.9255 45.4578 82.9255 44.5652 82.9255 43.7228C82.9255 42.7705 82.9255 41.8792 82.9399 41.0429C82.9399 40.0763 82.9543 39.183 82.9584 38.3569C82.9584 37.3659 82.9707 36.4705 82.9707 35.6607C83.0077 34.6066 83.0036 33.7133 82.9912 32.9299Z" fill="white"/>
</svg>
