<svg width="46" height="46" viewBox="0 0 46 46" fill="none" xmlns="http://www.w3.org/2000/svg">
<path d="M22.7223 0.229203C22.7892 -0.0667101 23.2108 -0.0667101 23.2777 0.229203L26.4331 14.1984C26.4722 14.3715 26.6584 14.467 26.8218 14.3978L34.4677 11.1592C34.7032 11.0594 34.9406 11.2968 34.8408 11.5323L31.6022 19.1782C31.533 19.3416 31.6285 19.5278 31.8016 19.5669L45.7708 22.7223C46.0667 22.7892 46.0667 23.2108 45.7708 23.2777L31.8016 26.4331C31.6285 26.4722 31.533 26.6584 31.6022 26.8218L34.8408 34.4677C34.9406 34.7032 34.7032 34.9406 34.4677 34.8408L26.8218 31.6022C26.6584 31.533 26.4722 31.6285 26.4331 31.8016L23.2777 45.7708C23.2108 46.0667 22.7892 46.0667 22.7223 45.7708L19.5669 31.8016C19.5278 31.6285 19.3416 31.533 19.1782 31.6022L11.5323 34.8408C11.2968 34.9406 11.0594 34.7032 11.1592 34.4677L14.3978 26.8218C14.467 26.6584 14.3715 26.4722 14.1984 26.4331L0.229203 23.2777C-0.0667101 23.2108 -0.0667101 22.7892 0.229203 22.7223L14.1984 19.5669C14.3715 19.5278 14.467 19.3416 14.3978 19.1782L11.1592 11.5323C11.0594 11.2968 11.2968 11.0594 11.5323 11.1592L19.1782 14.3978C19.3416 14.467 19.5278 14.3715 19.5669 14.1984L22.7223 0.229203Z" fill="#0059A9"/>
</svg>
