<svg width="51" height="51" viewBox="0 0 51 51" fill="none" xmlns="http://www.w3.org/2000/svg">
<g clip-path="url(#clip0_757_2484)">
<path fill-rule="evenodd" clip-rule="evenodd" d="M2.26562 25.2881H10.7133V50.4998H2.26562V25.2881ZM14.9384 14.8611H23.3861V50.5009H14.9384V14.8611ZM27.6099 25.2881H36.0576V50.4998H27.6099V25.2881ZM40.2815 14.4644H48.7292V50.4998H40.2815V14.4644Z" fill="#0059A9"/>
<path d="M6.49081 19.4889C8.75096 19.4889 10.5832 17.6567 10.5832 15.3966C10.5832 13.1364 8.75096 11.3042 6.49081 11.3042C4.23065 11.3042 2.39844 13.1364 2.39844 15.3966C2.39844 17.6567 4.23065 19.4889 6.49081 19.4889Z" fill="#0059A9"/>
<path d="M19.1627 9.02507C21.4228 9.02507 23.255 7.19285 23.255 4.9327C23.255 2.67255 21.4228 0.840332 19.1627 0.840332C16.9025 0.840332 15.0703 2.67255 15.0703 4.9327C15.0703 7.19285 16.9025 9.02507 19.1627 9.02507Z" fill="#0059A9"/>
<path d="M31.8267 19.5187C34.0869 19.5187 35.9191 17.6865 35.9191 15.4264C35.9191 13.1662 34.0869 11.334 31.8267 11.334C29.5666 11.334 27.7344 13.1662 27.7344 15.4264C27.7344 17.6865 29.5666 19.5187 31.8267 19.5187Z" fill="#0059A9"/>
<path d="M44.5064 8.68473C46.7666 8.68473 48.5988 6.85252 48.5988 4.59237C48.5988 2.33222 46.7666 0.5 44.5064 0.5C42.2463 0.5 40.4141 2.33222 40.4141 4.59237C40.4141 6.85252 42.2463 8.68473 44.5064 8.68473Z" fill="#0059A9"/>
<path d="M7.75 11.8114L15.7087 5.85276L17.0374 7.62327L9.07875 13.583L7.75 11.8114ZM23.0191 5.47559L30.0688 12.5242L28.5071 14.0952L21.4562 7.04771L23.0191 5.47559ZM33.9052 12.9383L41.0599 5.78355L42.6308 7.35452L35.4761 14.5104L33.9052 12.9383Z" fill="#0059A9"/>
</g>
<defs>
<clipPath id="clip0_757_2484">
<rect width="50" height="50" fill="white" transform="translate(0.5 0.5)"/>
</clipPath>
</defs>
</svg>
