<svg width="51" height="51" viewBox="0 0 51 51" fill="none" xmlns="http://www.w3.org/2000/svg">
<g clip-path="url(#clip0_757_2658)">
<path d="M25.5039 20.6792C30.1962 20.6792 34 16.8754 34 12.1831C34 7.49084 30.1962 3.68701 25.5039 3.68701C20.8116 3.68701 17.0078 7.49084 17.0078 12.1831C17.0078 16.8754 20.8116 20.6792 25.5039 20.6792Z" fill="#0059A9"/>
<path d="M42.6914 20.6787C45.6578 20.6787 48.0625 18.274 48.0625 15.3076C48.0625 12.3412 45.6578 9.93652 42.6914 9.93652C39.725 9.93652 37.3203 12.3412 37.3203 15.3076C37.3203 18.274 39.725 20.6787 42.6914 20.6787Z" fill="#0059A9"/>
<path d="M8.31641 20.6787C11.2828 20.6787 13.6875 18.274 13.6875 15.3076C13.6875 12.3412 11.2828 9.93652 8.31641 9.93652C5.35003 9.93652 2.94531 12.3412 2.94531 15.3076C2.94531 18.274 5.35003 20.6787 8.31641 20.6787Z" fill="#0059A9"/>
<path d="M13.6045 25.5022C11.4902 23.77 9.57549 23.9993 7.13086 23.9993C3.47461 23.9993 0.5 26.9563 0.5 30.5901V41.2552C0.5 42.8333 1.78809 44.1165 3.37207 44.1165C10.2105 44.1165 9.38672 44.2402 9.38672 43.8216C9.38672 36.2643 8.4916 30.7223 13.6045 25.5022Z" fill="#0059A9"/>
<path d="M27.8228 24.0381C23.5529 23.6819 19.8414 24.0422 16.6402 26.6846C11.283 30.9756 12.314 36.7532 12.314 43.8213C12.314 45.6913 13.8355 47.2412 15.7339 47.2412C36.3474 47.2412 37.1678 47.9061 38.3902 45.1992C38.7911 44.2838 38.6812 44.5747 38.6812 35.8174C38.6812 28.8617 32.6584 24.0381 27.8228 24.0381ZM43.8667 23.999C41.4087 23.999 39.5045 23.7721 37.3931 25.5019C42.4678 30.6832 41.6109 35.8472 41.6109 43.8213C41.6109 44.2426 40.927 44.1162 47.523 44.1162C49.1636 44.1162 50.4976 42.7871 50.4976 41.1533V30.5898C50.4976 26.9561 47.523 23.999 43.8667 23.999Z" fill="#0059A9"/>
</g>
<defs>
<clipPath id="clip0_757_2658">
<rect width="50" height="50" fill="white" transform="translate(0.5 0.5)"/>
</clipPath>
</defs>
</svg>
